# Made in Blockbench 5.1.4
mtllib reactionwheel_shaftless.mtl

o cube
v 0.818754265625 0.6560605749868699 0.6190821210937499
v 0.818754265625 0.6560605124868699 0.38001649609375
v 0.818754265625 0.7357490749868699 0.38001643359375
v 0.818754265625 0.7357491374868699 0.61908212109375
v 0.699221390625 0.6560605749868699 0.6190821210937499
v 0.699221390625 0.7357491374868699 0.61908212109375
v 0.699221390625 0.6560605124868699 0.38001649609375
v 0.699221390625 0.7357490749868699 0.38001643359375
v 0.699221390625 0.6560605124868699 0.30032793359375
v 0.699221390625 0.7357490749868699 0.30032787109375
v 0.3007786406249999 0.6560605749868699 0.6987706835937499
v 0.699221390625 0.6560605749868699 0.6987706835937499
v 0.699221390625 0.7357491374868699 0.6987706835937499
v 0.3007786406249999 0.7357491374868699 0.6987706835937499
v 0.3007786406249999 0.6560605749868699 0.6190821210937499
v 0.3007786406249999 0.7357491374868699 0.61908212109375
v 0.3007786406249999 0.6560605124868699 0.30032793359375
v 0.3007786406249999 0.7357490749868699 0.30032787109375
v 0.3007786406249999 0.65606057498687 0.38001649609375
v 0.3007786406249999 0.7357490749868699 0.38001643359375
v 0.18124576562499994 0.6560605749868699 0.6190821210937499
v 0.18124576562499994 0.7357491374868699 0.61908212109375
v 0.18124576562499994 0.65606057498687 0.38001649609375
v 0.18124576562499994 0.7357490749868699 0.38001643359375
vt 0.15625 0.546875
vt 0.15625 0.640625
vt 0.125 0.640625
vt 0.125 0.546875
vt 0.171875 0.578125
vt 0.125 0.578125
vt 0.125 0.546875
vt 0.171875 0.546875
vt 0.125 0.609375
vt 0.171875 0.609375
vt 0.171875 0.640625
vt 0.125 0.640625
vt 0.171875 0.640625
vt 0.171875 0.546875
vt 0.125 0.546875
vt 0.125 0.640625
vt 0.125 0.640625
vt 0.125 0.546875
vt 0.171875 0.546875
vt 0.171875 0.640625
vt 0.203125 0.546875
vt 0.171875 0.546875
vt 0.171875 0.515625
vt 0.203125 0.515625
vt 0.328125 0.640625
vt 0.171875 0.640625
vt 0.171875 0.671875
vt 0.328125 0.671875
vt 0.203125 0.546875
vt 0.171875 0.546875
vt 0.171875 0.515625
vt 0.203125 0.515625
vt 0.328125 0.546875
vt 0.171875 0.546875
vt 0.171875 0.515625
vt 0.328125 0.515625
vt 0.328125 0.640625
vt 0.328125 0.671875
vt 0.171875 0.671875
vt 0.171875 0.640625
vt 0.328125 0.640625
vt 0.328125 0.671875
vt 0.171875 0.671875
vt 0.171875 0.640625
vt 0.328125 0.515625
vt 0.328125 0.546875
vt 0.171875 0.546875
vt 0.171875 0.515625
vt 0.328125 0.515625
vt 0.328125 0.546875
vt 0.171875 0.546875
vt 0.171875 0.515625
vt 0.328125 0.546875
vt 0.296875 0.546875
vt 0.296875 0.515625
vt 0.328125 0.515625
vt 0.328125 0.546875
vt 0.296875 0.546875
vt 0.296875 0.515625
vt 0.328125 0.515625
vt 0.328125 0.546875
vt 0.328125 0.640625
vt 0.171875 0.640625
vt 0.171875 0.546875
vt 0.328125 0.546875
vt 0.328125 0.640625
vt 0.171875 0.640625
vt 0.171875 0.546875
vt 0.375 0.609375
vt 0.328125 0.609375
vt 0.328125 0.640625
vt 0.375 0.640625
vt 0.34375 0.546875
vt 0.34375 0.640625
vt 0.375 0.640625
vt 0.375 0.546875
vt 0.328125 0.578125
vt 0.375 0.578125
vt 0.375 0.546875
vt 0.328125 0.546875
vt 0.375 0.546875
vt 0.375 0.640625
vt 0.328125 0.640625
vt 0.328125 0.546875
vt 0.328125 0.546875
vt 0.328125 0.640625
vt 0.375 0.640625
vt 0.375 0.546875
vn 1 0 0
vn 0 -1.3932024744770073e-15 1
vn 0 -7.843032682226752e-7 -0.9999999999996926
vn 0 0.9999999999999658 -2.6143442250876264e-7
vn 0 -0.9999999999999658 2.6143449085673795e-7
vn 1 0 0
vn 0 0 1
vn -1 0 0
vn 0 -7.84303268222675e-7 -0.9999999999996925
vn 0 1 0
vn 0 -1 0
vn -1.5686067838917007e-7 -0.9999999999999878 0
vn 0 1 0
vn -1 0 0
vn 1 0 0
vn 0 -0.9999999999999659 2.6143449085673795e-7
vn 0 0.9999999999999659 -2.6143442250876264e-7
vn 0 -1.3932024744770073e-15 1
vn -1 0 0
vn 0 -7.843038833547747e-7 -0.9999999999996926
vn 0 0.9999999999999658 -2.6143442250876264e-7
vn 0 -1 -4.644009462360625e-16
usemtl m_0b41602a-5e41-aca7-d180-233d2bdbfdbb
f 1/1/1 2/2/1 3/3/1 4/4/1
f 5/5/2 1/6/2 4/7/2 6/8/2
f 2/9/3 7/10/3 8/11/3 3/12/3
f 8/13/4 6/14/4 4/15/4 3/16/4
f 2/17/5 1/18/5 5/19/5 7/20/5
f 7/21/6 9/22/6 10/23/6 8/24/6
f 11/25/7 12/26/7 13/27/7 14/28/7
f 15/29/8 11/30/8 14/31/8 16/32/8
f 9/33/9 17/34/9 18/35/9 10/36/9
f 16/37/10 14/38/10 13/39/10 6/40/10
f 5/41/11 12/42/11 11/43/11 15/44/11
f 9/45/12 7/46/12 19/47/12 17/48/12
f 18/49/13 20/50/13 8/51/13 10/52/13
f 17/53/14 19/54/14 20/55/14 18/56/14
f 12/57/15 5/58/15 6/59/15 13/60/15
f 7/61/16 5/62/16 15/63/16 19/64/16
f 20/65/17 16/66/17 6/67/17 8/68/17
f 21/69/18 15/70/18 16/71/18 22/72/18
f 23/73/19 21/74/19 22/75/19 24/76/19
f 19/77/20 23/78/20 24/79/20 20/80/20
f 24/81/21 22/82/21 16/83/21 20/84/21
f 19/85/22 15/86/22 21/87/22 23/88/22
o cube.001
v 0.739065703125 0.6959048249868699 0.5393935585937499
v 0.739065703125 0.6959048249868699 0.45970499609375
v 0.739065703125 0.7755933874868699 0.45970499609375
v 0.739065703125 0.7755933874868699 0.53939355859375
v 0.659377140625 0.6959048249868699 0.5393935585937499
v 0.659377140625 0.7755933874868699 0.53939355859375
v 0.659377140625 0.6959048249868699 0.45970499609375
v 0.659377140625 0.7755933874868699 0.45970499609375
vt 0.34375 0.578125
vt 0.3125 0.578125
vt 0.3125 0.609375
vt 0.34375 0.609375
vt 0.34375 0.578125
vt 0.3125 0.578125
vt 0.3125 0.609375
vt 0.34375 0.609375
vt 0.3125 0.578125
vt 0.34375 0.578125
vt 0.34375 0.609375
vt 0.3125 0.609375
vt 0.3125 0.578125
vt 0.34375 0.578125
vt 0.34375 0.609375
vt 0.3125 0.609375
vt 0.3125 0.578125
vt 0.34375 0.578125
vt 0.34375 0.609375
vt 0.3125 0.609375
vt 0.3125 0.578125
vt 0.34375 0.578125
vt 0.34375 0.609375
vt 0.3125 0.609375
vn 1 0 0
vn 0 -1.3932024744770073e-15 1
vn -1 0 0
vn 0 0 -1
vn 0 1 0
vn 0 -1 0
usemtl m_0b41602a-5e41-aca7-d180-233d2bdbfdbb
f 25/89/23 26/90/23 27/91/23 28/92/23
f 29/93/24 25/94/24 28/95/24 30/96/24
f 31/97/25 29/98/25 30/99/25 32/100/25
f 26/101/26 31/102/26 32/103/26 27/104/26
f 32/105/27 30/106/27 28/107/27 27/108/27
f 26/109/28 25/110/28 29/111/28 31/112/28
o cube.003
v 0.34062289062499995 0.6959048249868699 0.5393935585937499
v 0.34062289062499995 0.6959048249868699 0.45970499609375
v 0.34062289062499995 0.7755933874868699 0.45970499609375
v 0.34062289062499995 0.7755933874868699 0.53939355859375
v 0.26093432812499995 0.6959048249868699 0.5393935585937499
v 0.26093432812499995 0.7755933874868699 0.53939355859375
v 0.26093432812499995 0.6959048249868699 0.45970499609375
v 0.26093432812499995 0.7755933874868699 0.45970499609375
vt 0.3125 0.578125
vt 0.34375 0.578125
vt 0.34375 0.609375
vt 0.3125 0.609375
vt 0.3125 0.578125
vt 0.34375 0.578125
vt 0.34375 0.609375
vt 0.3125 0.609375
vt 0.3125 0.578125
vt 0.34375 0.578125
vt 0.34375 0.609375
vt 0.3125 0.609375
vt 0.3125 0.578125
vt 0.34375 0.578125
vt 0.34375 0.609375
vt 0.3125 0.609375
vt 0.3125 0.578125
vt 0.34375 0.578125
vt 0.34375 0.609375
vt 0.3125 0.609375
vt 0.3125 0.578125
vt 0.34375 0.578125
vt 0.34375 0.609375
vt 0.3125 0.609375
vn 1 0 0
vn 0 -1.3932024744770073e-15 1
vn -1 0 0
vn 0 0 -1
vn 0 1 0
vn 0 -1 0
usemtl m_0b41602a-5e41-aca7-d180-233d2bdbfdbb
f 33/113/29 34/114/29 35/115/29 36/116/29
f 37/117/30 33/118/30 36/119/30 38/120/30
f 39/121/31 37/122/31 38/123/31 40/124/31
f 34/125/32 39/126/32 40/127/32 35/128/32
f 40/129/33 38/130/33 36/131/33 35/132/33
f 34/133/34 33/134/34 37/135/34 39/136/34
o Circle.013
v 1.2616326406249998 0.40832026248687003 -0.15298931640625002
v 0.855046078125 0.4083202624868699 0.25359680859374994
v 0.742308828125 0.40832026248687 0.14085955859374993
v 1.148895390625 0.40832026248687003 -0.26572669140625005
v 0.742308828125 0.62733657498687 0.14085955859375
v 1.148895390625 0.62733657498687 -0.26572669140625005
v 0.855046078125 0.6273365749868699 0.25359687109375
v 1.2616326406249998 0.62733657498687 -0.15298931640625002
vt 0.921875 0.6875
vt 0.921875 0.453125
vt 0.859375 0.453125
vt 0.859375 0.6875
vt 0.9375 0.6875
vt 0.9375 0.453125
vt 0.859375 0.453125
vt 0.859375 0.6875
vt 0.921875 0.6875
vt 0.921875 0.453125
vt 0.859375 0.453125
vt 0.859375 0.6875
vt 0.859375 0.6875
vt 0.859375 0.453125
vt 0.9375 0.453125
vt 0.9375 0.6875
vn -1.0966709543503854e-16 -1 -3.827269556107145e-16
vn -0.7071065094473696 2.2039712429618357e-16 -0.707107052925621
vn 4.923937253318703e-16 1 4.923941037830331e-16
vn 0.7071064550994823 -2.0178494339239046e-7 0.7071071072734337
usemtl m_0b41602a-5e41-aca7-d180-233d2bdbfdbb
f 41/137/35 42/138/35 43/139/35 44/140/35
f 44/141/36 43/142/36 45/143/36 46/144/36
f 46/145/37 45/146/37 47/147/37 48/148/37
f 48/149/38 47/150/38 42/151/38 41/152/38
o Circle.021
v 1.500288890625 0.40832019998686986 0.5768221835937499
v 0.925288890625 0.40832019998686986 0.5768220585937499
v 0.925288828125 0.4083201999868699 0.41738743359374997
v 1.500288890625 0.4083201999868699 0.41738762109374994
v 0.925288828125 0.62733651248687 0.4173874960937499
v 1.500288890625 0.62733651248687 0.41738768359374995
v 0.925288890625 0.6273365124868698 0.57682205859375
v 1.500288890625 0.6273365124868698 0.5768221835937499
vt 0.921875 0.6875
vt 0.921875 0.453125
vt 0.859375 0.453125
vt 0.859375 0.6875
vt 0.9375 0.6875
vt 0.9375 0.453125
vt 0.859375 0.453125
vt 0.859375 0.6875
vt 0.921875 0.6875
vt 0.921875 0.453125
vt 0.859375 0.453125
vt 0.859375 0.6875
vt 0.859375 0.6875
vt 0.859375 0.453125
vt 0.9375 0.453125
vt 0.9375 0.6875
vn 7.569021831801213e-23 -1 -3.481750042141886e-16
vn 3.2608692102651666e-7 2.8536687171746216e-7 -0.9999999999999063
vn -2.2707071928649477e-22 1 6.963502814048226e-16
vn -2.1739130418512515e-7 -5.069134367303937e-16 0.9999999999999765
usemtl m_0b41602a-5e41-aca7-d180-233d2bdbfdbb
f 49/153/39 50/154/39 51/155/39 52/156/39
f 52/157/40 51/158/40 53/159/40 54/160/40
f 54/161/41 53/162/41 55/163/41 56/164/41
f 56/165/42 55/166/42 50/167/42 49/168/42
o Circle.024
v 0.42317764062499996 0.4083201374868697 1.50028880859375
v 0.42317782812499993 0.4083201999868698 0.92528880859375
v 0.582612453125 0.4083201999868698 0.92528880859375
v 0.582612203125 0.4083201374868697 1.50028893359375
v 0.582612453125 0.6273365124868697 0.9252888085937501
v 0.582612203125 0.6273364499868697 1.50028893359375
v 0.42317782812499993 0.6273365124868697 0.9252888710937499
v 0.42317764062499996 0.6273364499868697 1.50028880859375
vt 0.921875 0.6875
vt 0.921875 0.453125
vt 0.859375 0.453125
vt 0.859375 0.6875
vt 0.9375 0.6875
vt 0.9375 0.453125
vt 0.859375 0.453125
vt 0.859375 0.6875
vt 0.921875 0.6875
vt 0.921875 0.453125
vt 0.859375 0.453125
vt 0.859375 0.6875
vt 0.859375 0.6875
vt 0.859375 0.453125
vt 0.9375 0.453125
vt 0.9375 0.6875
vn 0 -0.9999999999999941 -1.086956523821879e-7
vn 0.9999999999999056 -2.101870348119329e-22 4.3478251423844633e-7
vn 4.2609795509545725e-14 0.9999999999999941 1.0869562865618086e-7
vn -0.9999999999999469 9.30544248181846e-14 -3.260869919149885e-7
usemtl m_0b41602a-5e41-aca7-d180-233d2bdbfdbb
f 57/169/43 58/170/43 59/171/43 60/172/43
f 60/173/44 59/174/44 61/175/44 62/176/44
f 62/177/45 61/178/45 63/179/45 64/180/45
f 64/181/46 63/182/46 58/183/46 57/184/46
o Circle.027
v -0.5002888593750001 0.4083201999868699 0.4231773710937499
v 0.07471114062499995 0.4083201999868699 0.42317768359374996
v 0.07471114062499995 0.40832019998686986 0.5826123085937499
v -0.500288921875 0.40832019998686986 0.5826120585937499
v 0.07471114062499995 0.6273365124868698 0.58261230859375
v -0.500288921875 0.6273365124868698 0.58261205859375
v 0.07471114062499995 0.62733651248687 0.4231777460937499
v -0.5002888593750001 0.62733651248687 0.42317743359374993
vt 0.921875 0.6875
vt 0.921875 0.453125
vt 0.859375 0.453125
vt 0.859375 0.6875
vt 0.9375 0.6875
vt 0.9375 0.453125
vt 0.859375 0.453125
vt 0.859375 0.6875
vt 0.921875 0.6875
vt 0.921875 0.453125
vt 0.859375 0.453125
vt 0.859375 0.6875
vt 0.859375 0.6875
vt 0.859375 0.453125
vt 0.9375 0.453125
vt 0.9375 0.6875
vn 1.8922554579501417e-22 -1 -3.4817500421415893e-16
vn -4.347825614974102e-7 -5.069133816310774e-16 0.9999999999999056
vn -3.0276095904862106e-22 1 6.963502814047336e-16
vn 5.434782608488878e-7 2.85366871717435e-7 -0.9999999999998116
usemtl m_0b41602a-5e41-aca7-d180-233d2bdbfdbb
f 65/185/47 66/186/47 67/187/47 68/188/47
f 68/189/48 67/190/48 69/191/48 70/192/48
f 70/193/49 69/194/49 71/195/49 72/196/49
f 72/197/50 71/198/50 66/199/50 65/200/50
o Circle.030
v 1.152989265625 0.4083201999868697 1.26163268359375
v 0.746403078125 0.4083201999868698 0.8550460585937499
v 0.8591403906249999 0.4083201999868698 0.74230887109375
v 1.265726578125 0.40832019998686975 1.1488954335937498
v 0.8591403906249999 0.6273365124868698 0.74230887109375
v 1.265726578125 0.6273365124868697 1.1488954335937498
v 0.746403078125 0.6273365124868698 0.85504605859375
v 1.152989265625 0.6273364499868697 1.26163268359375
vt 0.921875 0.6875
vt 0.921875 0.453125
vt 0.859375 0.453125
vt 0.859375 0.6875
vt 0.9375 0.6875
vt 0.9375 0.453125
vt 0.859375 0.453125
vt 0.859375 0.6875
vt 0.921875 0.6875
vt 0.921875 0.453125
vt 0.859375 0.453125
vt 0.859375 0.6875
vt 0.859375 0.6875
vt 0.859375 0.453125
vt 0.9375 0.453125
vt 0.9375 0.6875
vn -1.3652970095237432e-16 -1 -1.365298523328815e-16
vn 0.707107107273448 0 -0.7071064550994967
vn 1.3652971144597617e-16 1 1.3652986282649486e-16
vn -0.707107161621221 -4.4079424859233583e-16 0.7071064007516694
usemtl m_0b41602a-5e41-aca7-d180-233d2bdbfdbb
f 73/201/51 74/202/51 75/203/51 76/204/51
f 76/205/52 75/206/52 77/207/52 78/208/52
f 78/209/53 77/210/53 79/211/53 80/212/53
f 80/213/54 79/214/54 74/215/54 73/216/54
o Circle.033
v -0.2616327968750001 0.40832019998686975 1.15298905859375
v 0.14495389062499997 0.4083201999868698 0.7464029960937499
v 0.257691078125 0.4083201999868698 0.8591403085937499
v -0.14889560937500002 0.4083201999868697 1.26572643359375
v 0.257691078125 0.6273365124868698 0.85914030859375
v -0.14889560937500002 0.6273364499868697 1.26572643359375
v 0.14495389062499997 0.6273365124868698 0.7464029960937499
v -0.2616327968750001 0.6273365124868697 1.15298905859375
vt 0.921875 0.6875
vt 0.921875 0.453125
vt 0.859375 0.453125
vt 0.859375 0.6875
vt 0.9375 0.6875
vt 0.9375 0.453125
vt 0.859375 0.453125
vt 0.859375 0.6875
vt 0.921875 0.6875
vt 0.921875 0.453125
vt 0.859375 0.453125
vt 0.859375 0.6875
vt 0.859375 0.6875
vt 0.859375 0.453125
vt 0.9375 0.453125
vt 0.9375 0.6875
vn 6.826493141323583e-17 -1 -6.826485572297643e-17
vn 0.7071062920559522 -2.2039712429614708e-16 0.7071072703168046
vn -7.68594742269453e-8 0.9999999999999941 7.685938900729553e-8
vn -0.7071062377080455 0 -0.707107324664632
usemtl m_0b41602a-5e41-aca7-d180-233d2bdbfdbb
f 81/217/55 82/218/55 83/219/55 84/220/55
f 84/221/56 83/222/56 85/223/56 86/224/56
f 86/225/57 85/226/57 87/227/57 88/228/57
f 88/229/58 87/230/58 82/231/58 81/232/58
o Circle.012
v 0.7150828281249999 0.6644218874868699 0.28491718359375
v 0.8006949531249999 0.6644218874868699 0.19930499609374996
v 0.675783328125 0.6644218874868699 0.07562137109374989
v 0.6259831406249999 0.6644218874868699 0.19582049609374996
v 0.7445554531249999 0.40832026248687 0.1431655585937499
v 0.6757833906249999 0.37067182498686996 0.07562143359374995
v 0.7445554531249999 0.62733651248687 0.14316555859374996
v 0.8006949531249999 0.40832019998686997 0.1993049960937499
v 0.8006949531249999 0.37067182498686996 0.1993049960937499
v 0.8006949531249999 0.62733651248687 0.19930499609374996
v 0.20003151562499993 0.3706718249868699 0.4999999960937499
v 0.07895764062499994 0.3706718249868699 0.4999999960937499
v 0.07772376562499994 0.37123488748686995 0.32421662109374993
v 0.19582057812499998 0.3706718249868699 0.37401680859374986
v 0.804170953125 0.6644218874868699 0.37399618359375
v 0.924378578125 0.6644218874868699 0.32421668359375
v 0.856834453125 0.4083201999868699 0.2554444960937499
v 0.856834453125 0.62733651248687 0.25544449609375
v 0.924378578125 0.37123488748686995 0.32421662109374993
v 0.19582051562499997 0.37067182498686985 0.6259830585937499
v 0.07772376562499994 0.37123488748686984 0.6757833085937499
v 0.500000015625 0.6644218874868699 0.19582693359374997
v 0.500000015625 0.6644218874868699 0.07475305859374992
v 0.32421670312499995 0.6644218874868699 0.07562137109374989
v 0.3739962031249999 0.6644218874868699 0.19582905859375
v 0.420606765625 0.40832026248687 0.07475305859374992
v 0.32421670312499995 0.37067182498686996 0.07562137109374989
v 0.420606765625 0.62733651248687 0.07475305859374992
v 0.500000015625 0.40832026248687 0.07475305859374992
v 0.500000015625 0.37067182498686996 0.07475305859374992
v 0.500000015625 0.62733651248687 0.07475305859374992
v 0.8041730781249999 0.3706718249868699 0.4999999960937499
v 0.925246890625 0.3706718249868699 0.4999999960937499
v 0.924378578125 0.37067182498686985 0.6757834335937499
v 0.8041794531249999 0.37067182498686985 0.6259831835937499
v 0.5793932656249999 0.40832026248687 0.07475305859374992
v 0.5793932656249999 0.62733651248687 0.07475305859374992
v 0.804170953125 0.3706718249868699 0.37399618359374986
v 0.28491720312499996 0.6644218874868699 0.28491718359375
v 0.19930507812499998 0.6644218874868699 0.19930499609374996
v 0.07772376562499994 0.6644218874868699 0.32421668359375
v 0.19582057812499998 0.6644218874868699 0.37401680859374997
v 0.14316557812499997 0.4083202624868699 0.2554444960937499
v 0.14316557812499997 0.62733651248687 0.25544449609375
v 0.19930507812499998 0.4083202624868699 0.1993049960937499
v 0.19930507812499998 0.37067182498686996 0.1993049960937499
v 0.19930507812499998 0.62733651248687 0.19930499609374996
v 0.715082765625 0.37067182498686985 0.7150828710937499
v 0.800694890625 0.3706718249868698 0.8006949960937499
v 0.675783265625 0.3706718249868698 0.92437855859375
v 0.625983078125 0.3706718249868698 0.8041794960937498
v 0.255444578125 0.40832026248687 0.1431655585937499
v 0.255444578125 0.62733651248687 0.14316555859374996
v 0.49999989062499994 0.6644218874868698 0.80417299609375
v 0.49999989062499994 0.6644218874868698 0.92524687109375
v 0.675783265625 0.6644218249868697 0.9243785585937501
v 0.625983078125 0.6644218874868698 0.80417949609375
v 0.579393078125 0.4083201999868698 0.9252468710937499
v 0.579393078125 0.6273365124868697 0.92524687109375
v 0.49999989062499994 0.4083201999868698 0.9252468710937499
v 0.49999989062499994 0.3706718249868698 0.9252468710937499
v 0.49999989062499994 0.6273365124868697 0.92524687109375
v 0.28491720312499996 0.37067182498686985 0.7150827460937499
v 0.19930501562499997 0.3706718249868698 0.8006948710937499
v 0.37399607812499996 0.6644218874868698 0.80417087109375
v 0.32421657812499993 0.6644218874868698 0.9243784335937499
v 0.420606640625 0.4083201999868698 0.92524680859375
v 0.420606640625 0.6273365124868697 0.92524680859375
v 0.32421657812499993 0.3706718249868698 0.9243784335937499
v 0.37399607812499996 0.3706718249868698 0.8041708710937499
v 0.28491714062499995 0.6644218874868698 0.71508274609375
v 0.19930501562499997 0.6644218874868698 0.80069487109375
v 0.2554445156249999 0.4083201999868698 0.8568343710937499
v 0.2554445156249999 0.6273365124868698 0.85683437109375
v 0.19930501562499997 0.4083201999868698 0.8006948710937499
v 0.19930501562499997 0.6273365124868698 0.8006948710937499
v 0.49999995312499995 0.3706718249868698 0.8041729960937499
v 0.19582051562499997 0.6644218874868699 0.62598305859375
v 0.07772376562499994 0.6644218874868698 0.6757833085937499
v 0.14316551562499996 0.4083201999868698 0.7445553710937499
v 0.14316551562499996 0.6273365124868698 0.7445553710937499
v 0.715082765625 0.6644218874868698 0.71508287109375
v 0.800694890625 0.6644218874868698 0.8006949960937499
v 0.924378578125 0.6644218874868698 0.6757834335937499
v 0.8041794531249999 0.6644218874868699 0.62598324609375
v 0.856834453125 0.4083201999868698 0.7445555585937499
v 0.856834453125 0.6273365124868698 0.74455555859375
v 0.800694890625 0.4083201999868698 0.8006949960937499
v 0.800694890625 0.6273365124868698 0.8006949960937499
v 0.28491720312499996 0.3706718249868699 0.28491718359374996
v 0.3739962031249999 0.37067182498686996 0.19582905859374994
v 0.744555390625 0.4083201999868698 0.85683449609375
v 0.744555390625 0.6273365124868698 0.85683449609375
v 0.8041730781249999 0.6644218874868699 0.49999999609374995
v 0.925246890625 0.6644218874868699 0.49999999609374995
v 0.925246890625 0.4083201999868699 0.42060674609374993
v 0.925246890625 0.62733651248687 0.42060674609374993
v 0.925246890625 0.40832019998686986 0.4999999960937499
v 0.925246890625 0.62733651248687 0.49999999609374995
v 0.500000015625 0.37067182498686996 0.19582693359374992
v 0.625983203125 0.37067182498686996 0.19582055859374992
v 0.925246890625 0.40832019998686986 0.5793932460937499
v 0.925246890625 0.6273365124868698 0.57939324609375
v 0.20003151562499993 0.6644218874868699 0.49999999609374995
v 0.07895764062499994 0.6644218874868699 0.49999999609374995
v 0.07895770312499995 0.40832019998686986 0.5793932460937499
v 0.07895770312499995 0.6273365124868698 0.57939324609375
v 0.07895764062499994 0.40832019998686986 0.4999999960937499
v 0.07895764062499994 0.62733651248687 0.49999999609374995
v 0.7150828281249999 0.3706718249868699 0.28491718359374996
v 0.07895764062499994 0.4083202624868699 0.42060674609374993
v 0.07895764062499994 0.62733651248687 0.42060674609374993
vt 0.6875 0.90625
vt 0.6875 0.859375
vt 0.625 0.859375
vt 0.640625 0.90625
vt 0.3125 0.921875
vt 0.296875 0.9375
vt 0.421875 0.9375
vt 0.40625 0.921875
vt 0.3125 0.890752
vt 0.296875 0.882012
vt 0.296875 0.9375
vt 0.3125 0.921875
vt 0.40625 0.921875
vt 0.421875 0.9375
vt 0.421875 0.882012
vt 0.40625 0.890752
vt 0.6875 0.90625
vt 0.6875 0.859375
vt 0.75 0.859375
vt 0.734375 0.90625
vt 0.6875 0.90625
vt 0.734375 0.90625
vt 0.75 0.859375
vt 0.6875 0.859375
vt 0.3125 0.921875
vt 0.40625 0.921875
vt 0.421875 0.9375
vt 0.296875 0.9375
vt 0.3125 0.890752
vt 0.3125 0.921875
vt 0.296875 0.9375
vt 0.296875 0.882012
vt 0.40625 0.921875
vt 0.40625 0.890752
vt 0.421875 0.882012
vt 0.421875 0.9375
vt 0.6875 0.90625
vt 0.640625 0.90625
vt 0.625 0.859375
vt 0.6875 0.859375
vt 0.6875 0.90625
vt 0.6875 0.859375
vt 0.625 0.859375
vt 0.640625 0.90625
vt 0.3125 0.921875
vt 0.296875 0.9375
vt 0.421875 0.9375
vt 0.40625 0.921875
vt 0.3125 0.890752
vt 0.296875 0.882012
vt 0.296875 0.9375
vt 0.3125 0.921875
vt 0.40625 0.921875
vt 0.421875 0.9375
vt 0.421875 0.882012
vt 0.40625 0.890752
vt 0.6875 0.90625
vt 0.6875 0.859375
vt 0.75 0.859375
vt 0.734375 0.90625
vt 0.6875 0.90625
vt 0.734375 0.90625
vt 0.75 0.859375
vt 0.6875 0.859375
vt 0.3125 0.921875
vt 0.40625 0.921875
vt 0.421875 0.9375
vt 0.296875 0.9375
vt 0.3125 0.890752
vt 0.3125 0.921875
vt 0.296875 0.9375
vt 0.296875 0.882012
vt 0.40625 0.921875
vt 0.40625 0.890752
vt 0.421875 0.882012
vt 0.421875 0.9375
vt 0.6875 0.90625
vt 0.640625 0.90625
vt 0.625 0.859375
vt 0.6875 0.859375
vt 0.6875 0.90625
vt 0.6875 0.859375
vt 0.625 0.859375
vt 0.640625 0.90625
vt 0.3125 0.921875
vt 0.296875 0.9375
vt 0.421875 0.9375
vt 0.40625 0.921875
vt 0.3125 0.890752
vt 0.296875 0.882012
vt 0.296875 0.9375
vt 0.3125 0.921875
vt 0.40625 0.921875
vt 0.421875 0.9375
vt 0.421875 0.882012
vt 0.40625 0.890752
vt 0.6875 0.90625
vt 0.6875 0.859375
vt 0.75 0.859375
vt 0.734375 0.90625
vt 0.6875 0.90625
vt 0.734375 0.90625
vt 0.75 0.859375
vt 0.6875 0.859375
vt 0.3125 0.921875
vt 0.40625 0.921875
vt 0.421875 0.9375
vt 0.296875 0.9375
vt 0.3125 0.890752
vt 0.3125 0.921875
vt 0.296875 0.9375
vt 0.296875 0.882012
vt 0.40625 0.921875
vt 0.40625 0.890752
vt 0.421875 0.882012
vt 0.421875 0.9375
vt 0.6875 0.90625
vt 0.640625 0.90625
vt 0.625 0.859375
vt 0.6875 0.859375
vt 0.6875 0.90625
vt 0.6875 0.859375
vt 0.625 0.859375
vt 0.640625 0.90625
vt 0.3125 0.921875
vt 0.296875 0.9375
vt 0.421875 0.9375
vt 0.40625 0.921875
vt 0.3125 0.890752
vt 0.296875 0.882012
vt 0.296875 0.9375
vt 0.3125 0.921875
vt 0.40625 0.921875
vt 0.421875 0.9375
vt 0.421875 0.882012
vt 0.40625 0.890752
vt 0.6875 0.90625
vt 0.6875 0.859375
vt 0.75 0.859375
vt 0.734375 0.90625
vt 0.6875 0.90625
vt 0.734375 0.90625
vt 0.75 0.859375
vt 0.6875 0.859375
vt 0.3125 0.921875
vt 0.40625 0.921875
vt 0.421875 0.9375
vt 0.296875 0.9375
vt 0.3125 0.890752
vt 0.3125 0.921875
vt 0.296875 0.9375
vt 0.296875 0.882012
vt 0.40625 0.921875
vt 0.40625 0.890752
vt 0.421875 0.882012
vt 0.421875 0.9375
vt 0.6875 0.90625
vt 0.640625 0.90625
vt 0.625 0.859375
vt 0.6875 0.859375
vt 0.6875 0.90625
vt 0.6875 0.859375
vt 0.625 0.859375
vt 0.640625 0.90625
vt 0.3125 0.921875
vt 0.296875 0.9375
vt 0.421875 0.9375
vt 0.40625 0.921875
vt 0.3125 0.890752
vt 0.296875 0.882012
vt 0.296875 0.9375
vt 0.3125 0.921875
vt 0.40625 0.921875
vt 0.421875 0.9375
vt 0.421875 0.882012
vt 0.40625 0.890752
vt 0.6875 0.90625
vt 0.6875 0.859375
vt 0.75 0.859375
vt 0.734375 0.90625
vt 0.6875 0.90625
vt 0.734375 0.90625
vt 0.75 0.859375
vt 0.6875 0.859375
vt 0.3125 0.921875
vt 0.40625 0.921875
vt 0.421875 0.9375
vt 0.296875 0.9375
vt 0.3125 0.890752
vt 0.3125 0.921875
vt 0.296875 0.9375
vt 0.296875 0.882012
vt 0.40625 0.921875
vt 0.40625 0.890752
vt 0.421875 0.882012
vt 0.421875 0.9375
vt 0.6875 0.90625
vt 0.640625 0.90625
vt 0.625 0.859375
vt 0.6875 0.859375
vt 0.6875 0.90625
vt 0.6875 0.859375
vt 0.625 0.859375
vt 0.640625 0.90625
vt 0.3125 0.921875
vt 0.296875 0.9375
vt 0.421875 0.9375
vt 0.40625 0.921875
vt 0.3125 0.890752
vt 0.296875 0.882012
vt 0.296875 0.9375
vt 0.3125 0.921875
vt 0.40625 0.921875
vt 0.421875 0.9375
vt 0.421875 0.882012
vt 0.40625 0.890752
vt 0.6875 0.90625
vt 0.6875 0.859375
vt 0.75 0.859375
vt 0.734375 0.90625
vt 0.6875 0.90625
vt 0.734375 0.90625
vt 0.75 0.859375
vt 0.6875 0.859375
vt 0.3125 0.921875
vt 0.40625 0.921875
vt 0.421875 0.9375
vt 0.296875 0.9375
vt 0.3125 0.890752
vt 0.3125 0.921875
vt 0.296875 0.9375
vt 0.296875 0.882012
vt 0.40625 0.921875
vt 0.40625 0.890752
vt 0.421875 0.882012
vt 0.421875 0.9375
vt 0.6875 0.90625
vt 0.640625 0.90625
vt 0.625 0.859375
vt 0.6875 0.859375
vt 0.6875 0.90625
vt 0.6875 0.859375
vt 0.625 0.859375
vt 0.640625 0.90625
vt 0.3125 0.921875
vt 0.296875 0.9375
vt 0.421875 0.9375
vt 0.40625 0.921875
vt 0.3125 0.890752
vt 0.296875 0.882012
vt 0.296875 0.9375
vt 0.3125 0.921875
vt 0.40625 0.921875
vt 0.421875 0.9375
vt 0.421875 0.882012
vt 0.40625 0.890752
vt 0.6875 0.90625
vt 0.6875 0.859375
vt 0.75 0.859375
vt 0.734375 0.90625
vt 0.6875 0.90625
vt 0.734375 0.90625
vt 0.75 0.859375
vt 0.6875 0.859375
vt 0.3125 0.921875
vt 0.40625 0.921875
vt 0.421875 0.9375
vt 0.296875 0.9375
vt 0.3125 0.890752
vt 0.3125 0.921875
vt 0.296875 0.9375
vt 0.296875 0.882012
vt 0.40625 0.921875
vt 0.40625 0.890752
vt 0.421875 0.882012
vt 0.421875 0.9375
vt 0.6875 0.90625
vt 0.640625 0.90625
vt 0.625 0.859375
vt 0.6875 0.859375
vt 0.6875 0.90625
vt 0.6875 0.859375
vt 0.625 0.859375
vt 0.640625 0.90625
vt 0.3125 0.921875
vt 0.296875 0.9375
vt 0.421875 0.9375
vt 0.40625 0.921875
vt 0.3125 0.890752
vt 0.296875 0.882012
vt 0.296875 0.9375
vt 0.3125 0.921875
vt 0.40625 0.921875
vt 0.421875 0.9375
vt 0.421875 0.882012
vt 0.40625 0.890752
vt 0.6875 0.90625
vt 0.6875 0.859375
vt 0.75 0.859375
vt 0.734375 0.90625
vt 0.6875 0.90625
vt 0.734375 0.90625
vt 0.75 0.859375
vt 0.6875 0.859375
vt 0.3125 0.921875
vt 0.40625 0.921875
vt 0.421875 0.9375
vt 0.296875 0.9375
vt 0.3125 0.890752
vt 0.3125 0.921875
vt 0.296875 0.9375
vt 0.296875 0.882012
vt 0.40625 0.921875
vt 0.40625 0.890752
vt 0.421875 0.882012
vt 0.421875 0.9375
vt 0.6875 0.90625
vt 0.640625 0.90625
vt 0.625 0.859375
vt 0.6875 0.859375
vn 0 1 0
vn 0.700708728741966 -2.7103679487841973e-9 -0.7134474594984679
vn 0.7036052597569427 0 -0.7105910486646769
vn 0.7035659312897636 0.010573229141752585 -0.7105513261924741
vn 0 -0.9999948699183927 -0.0032031448448607246
vn 0 1 0
vn 0.7134480969395836 1.7759915568773704e-16 -0.7007080797117203
vn 0.7069130322473205 -0.02340789776544773 -0.7069130322473205
vn 0.7071067811865476 0 -0.7071067811865476
vn -0.004835913540183205 -0.9999882938376876 -0.00016164102946589995
vn 0 1 0
vn -0.00900795422184545 0 -0.9999594275573072
vn -0.004939615110568535 0 -0.99998780002686
vn -0.0049393389416977716 0.010574253905561066 -0.9999318917232112
vn 0 -1 -3.1579284158246033e-16
vn 0 1 0
vn 0.009007954221845452 0 -0.9999594275573072
vn 0 -0.023059233189922174 -0.9997341005310826
vn 0 0 -1
vn 0.004683998963840804 -0.9999890300166802 -7.89936240857228e-8
vn 0 1 0
vn -0.7244296041390794 1.4695160141294493e-7 -0.6893487859181845
vn -0.71659494612474 0 -0.69748955776304
vn -0.7162955969596997 0.02891000783022147 -0.6971978408051793
vn -3.2259989829973523e-16 -1 -3.258030146201089e-16
vn 0 1 0
vn -0.7007087338794699 1.808280871381895e-16 -0.7134474544526951
vn -0.7069184314357017 -0.02305536566625886 -0.7069192184475411
vn -0.7071063875758925 0 -0.7071071747969835
vn 0 -1 0
vn 3.555512577013799e-7 0.9999999999999369 0
vn 0.009007942541165553 -3.781107774515134e-16 0.9999594276625303
vn 0.004939613354325024 0 0.9999878000355353
vn 0.0049393409453593155 0.010574249870773548 0.9999318917559815
vn -0.0022842830504636435 -0.9999947820335225 -0.0022842847180749313
vn 0 1 0
vn -0.009008602550011981 0 0.9999594217167495
vn -7.870112898052349e-7 -0.023057257558925508 0.9997341460974725
vn -7.872205768655136e-7 0 0.9999999999996902
vn -4.406646634269046e-16 -1 -1.82484913235468e-16
vn 0 1 0
vn -0.7007083979560891 0 0.7134477843779538
vn -0.7036052597569429 0 0.7105910486646767
vn -0.7035659205767484 0.01057443181671499 0.7105513189029673
vn 0 -1 0
vn -2.9166336007937837e-16 1 1.5376992594025432e-15
vn -0.7244295804870735 0 0.689348810773851
vn -0.7056854994767935 -0.06337153664206825 0.7056854994767935
vn -0.7071067811865476 -2.2094048882004042e-15 0.7071067811865476
vn 0 -1 0
vn 0 1 0
vn 0.7134477785901254 0 0.7007084038491442
vn 0.7105906931350412 0 0.7036056188162952
vn 0.7105509536133021 0.010575733205843601 0.7035662699322544
vn -3.2259986187418435e-16 -1 -3.2580281319762335e-16
vn 3.676397462463034e-7 0.9999999999998649 3.6765238305182656e-7
vn 0.7007080738183692 0 0.7134481027276973
vn 0.706918762837256 -0.02305917382056468 0.706918762837256
vn 0.7071067811865476 0 0.7071067811865476
vn -0.0033536143638250807 -0.9999887535861308 -0.003353501447041298
vn 0 1 0
vn 0.9999594276032638 1.920265293465898e-9 -0.009007949120248217
vn 0.9999878000355353 0 -0.004939613354325026
vn 0.9999318917232112 0.010574253905561078 -0.004939338941697773
vn 0 -1 0
vn 9.236725317726221e-16 1 -4.673964507228657e-20
vn 0.9999594276625303 -4.5662467327417074e-18 0.009007942541165713
vn 0.9997341379075213 -0.023057612675760703 0
vn 1 0 0
vn 0 -1 0
vn 0 1 6.315861322872481e-16
vn -0.999918070853292 0 -0.012800452376027222
vn -0.9999753656562235 0 -0.007019122502308449
vn -0.9998624613227872 -0.015026692305399885 -0.007018329993438094
vn 0.002264966116553601 -0.9999948699190772 0.002264964463045591
vn 0 1 0
vn -0.9999180791516261 0 0.01279980412828562
vn -0.9994469749198938 0.033252734075149074 2.6177236501002478e-8
vn -1 0 0
vn -4.4051711140969782e-16 -1 -1.8251243297454383e-16
usemtl m_0b41602a-5e41-aca7-d180-233d2bdbfdbb
f 89/233/59 90/234/59 91/235/59 92/236/59
f 93/237/60 94/238/60 91/239/60 95/240/60
f 96/241/61 97/242/61 94/243/61 93/244/61
f 95/245/62 91/246/62 90/247/62 98/248/62
f 99/249/63 100/250/63 101/251/63 102/252/63
f 89/253/64 103/254/64 104/255/64 90/256/64
f 105/257/65 106/258/65 104/259/65 107/260/65
f 96/261/66 105/262/66 107/263/66 97/264/66
f 106/265/67 98/266/67 90/267/67 104/268/67
f 99/269/68 108/270/68 109/271/68 100/272/68
f 110/273/69 111/274/69 112/275/69 113/276/69
f 114/277/70 115/278/70 112/279/70 116/280/70
f 117/281/71 118/282/71 115/283/71 114/284/71
f 116/285/72 112/286/72 111/287/72 119/288/72
f 120/289/73 121/290/73 122/291/73 123/292/73
f 110/293/74 92/294/74 91/295/74 111/296/74
f 124/297/75 125/298/75 91/299/75 94/300/75
f 117/301/76 124/302/76 94/303/76 118/304/76
f 125/305/77 119/306/77 111/307/77 91/308/77
f 120/309/78 126/310/78 107/311/78 121/312/78
f 127/313/79 128/314/79 129/315/79 130/316/79
f 131/317/80 101/318/80 129/319/80 132/320/80
f 133/321/81 134/322/81 101/323/81 131/324/81
f 132/325/82 129/326/82 128/327/82 135/328/82
f 136/329/83 137/330/83 138/331/83 139/332/83
f 127/333/84 113/334/84 112/335/84 128/336/84
f 140/337/85 141/338/85 112/339/85 115/340/85
f 133/341/86 140/342/86 115/343/86 134/344/86
f 141/345/87 135/346/87 128/347/87 112/348/87
f 136/349/88 123/350/88 122/351/88 137/352/88
f 142/353/89 143/354/89 144/355/89 145/356/89
f 146/357/90 138/358/90 144/359/90 147/360/90
f 148/361/91 149/362/91 138/363/91 146/364/91
f 147/365/92 144/366/92 143/367/92 150/368/92
f 151/369/93 152/370/93 109/371/93 108/372/93
f 142/373/94 153/374/94 154/375/94 143/376/94
f 155/377/95 156/378/95 154/379/95 157/380/95
f 148/381/96 155/382/96 157/383/96 149/384/96
f 156/385/97 150/386/97 143/387/97 154/388/97
f 151/389/98 158/390/98 157/391/98 152/392/98
f 159/393/99 160/394/99 154/395/99 153/396/99
f 161/397/100 157/398/100 154/399/100 162/400/100
f 163/401/101 152/402/101 157/403/101 161/404/101
f 162/405/102 154/406/102 160/407/102 164/408/102
f 165/409/103 149/410/103 157/411/103 158/412/103
f 159/413/104 166/414/104 167/415/104 160/416/104
f 168/417/105 169/418/105 167/419/105 109/420/105
f 163/421/106 168/422/106 109/423/106 152/424/106
f 169/425/107 164/426/107 160/427/107 167/428/107
f 165/429/108 139/430/108 138/431/108 149/432/108
f 170/433/109 171/434/109 172/435/109 173/436/109
f 174/437/110 122/438/110 172/439/110 175/440/110
f 176/441/111 137/442/111 122/443/111 174/444/111
f 175/445/112 172/446/112 171/447/112 177/448/112
f 178/449/113 134/450/113 115/451/113 179/452/113
f 170/453/114 145/454/114 144/455/114 171/456/114
f 180/457/115 181/458/115 144/459/115 138/460/115
f 176/461/116 180/462/116 138/463/116 137/464/116
f 181/465/117 177/466/117 171/467/117 144/468/117
f 178/469/118 102/470/118 101/471/118 134/472/118
f 182/473/119 183/474/119 104/475/119 103/476/119
f 184/477/120 107/478/120 104/479/120 185/480/120
f 186/481/121 121/482/121 107/483/121 184/484/121
f 185/485/122 104/486/122 183/487/122 187/488/122
f 188/489/123 118/490/123 94/491/123 189/492/123
f 182/493/124 173/494/124 172/495/124 183/496/124
f 190/497/125 191/498/125 172/499/125 122/500/125
f 186/501/126 190/502/126 122/503/126 121/504/126
f 191/505/127 187/506/127 183/507/127 172/508/127
f 188/509/128 179/510/128 115/511/128 118/512/128
f 192/513/129 193/514/129 167/515/129 166/516/129
f 194/517/130 109/518/130 167/519/130 195/520/130
f 196/521/131 100/522/131 109/523/131 194/524/131
f 195/525/132 167/526/132 193/527/132 197/528/132
f 198/529/133 97/530/133 107/531/133 126/532/133
f 192/533/134 130/534/134 129/535/134 193/536/134
f 199/537/135 200/538/135 129/539/135 101/540/135
f 196/541/136 199/542/136 101/543/136 100/544/136
f 200/545/137 197/546/137 193/547/137 129/548/137
f 198/549/138 189/550/138 94/551/138 97/552/138
o Circle.002
v 0.576822328125 0.4083202624868701 -0.5002887539062502
v 0.5768221406249999 0.40832026248687 0.07471112109374989
v 0.417387515625 0.40832026248687 0.07471112109374989
v 0.41738770312499995 0.4083202624868701 -0.5002888789062501
v 0.417387515625 0.62733651248687 0.07471112109374989
v 0.41738770312499995 0.6273365749868701 -0.5002888789062501
v 0.5768221406249999 0.62733657498687 0.07471112109374989
v 0.5768222656249999 0.6273365749868701 -0.5002887539062502
vt 0.921875 0.6875
vt 0.921875 0.453125
vt 0.859375 0.453125
vt 0.859375 0.6875
vt 0.9375 0.6875
vt 0.9375 0.453125
vt 0.859375 0.453125
vt 0.859375 0.6875
vt 0.921875 0.6875
vt 0.921875 0.453125
vt 0.859375 0.453125
vt 0.859375 0.6875
vt 0.859375 0.6875
vt 0.859375 0.453125
vt 0.9375 0.453125
vt 0.9375 0.6875
vn 0 -1 -1.9308230712661572e-16
vn -0.9999999999999469 0 -3.260869564707605e-7
vn -3.920102052125888e-7 0.9999999999999174 1.08695524649306e-7
vn 0.9999999999999765 0 2.1739135163719694e-7
usemtl m_0b41602a-5e41-aca7-d180-233d2bdbfdbb
f 201/553/139 202/554/139 203/555/139 204/556/139
f 204/557/140 203/558/140 205/559/140 206/560/140
f 206/561/141 205/562/141 207/563/141 208/564/141
f 208/565/142 207/566/142 202/567/142 201/568/142
o Circle.015
v -0.15298948437500004 0.40832019998687 -0.26163250390625004
v 0.25359682812499995 0.40832019998686997 0.1449538710937499
v 0.14085957812499994 0.4083201999868699 0.25769118359374993
v -0.26572673437500005 0.40832019998687 -0.14889525390625002
v 0.140859515625 0.62733651248687 0.25769118359375
v -0.26572673437500005 0.62733644998687 -0.14889525390625002
v 0.25359682812499995 0.62733651248687 0.14495387109374996
v -0.15298948437500004 0.6273365124868701 -0.26163250390625004
vt 0.921875 0.6875
vt 0.921875 0.453125
vt 0.859375 0.453125
vt 0.859375 0.6875
vt 0.9375 0.6875
vt 0.9375 0.453125
vt 0.859375 0.453125
vt 0.859375 0.6875
vt 0.921875 0.6875
vt 0.921875 0.453125
vt 0.859375 0.453125
vt 0.859375 0.6875
vt 0.859375 0.6875
vt 0.859375 0.453125
vt 0.9375 0.453125
vt 0.9375 0.6875
vn 1.7793205846381885e-16 -1 -3.1446181824857354e-16
vn -0.7071068898821834 -2.0178488146081276e-7 0.7071066724908662
vn -7.685944315883658e-8 0.9999999999999941 -7.68594431588365e-8
vn 0.7071068355343789 2.2039715817539974e-16 -0.707106726838712
usemtl m_0b41602a-5e41-aca7-d180-233d2bdbfdbb
f 209/569/143 210/570/143 211/571/143 212/572/143
f 212/573/144 211/574/144 213/575/144 214/576/144
f 214/577/145 213/578/145 215/579/145 216/580/145
f 216/581/146 215/582/146 210/583/146 209/584/146
o cube.002
v 0.18124576562499994 0.39249219998686985 0.6190821210937499
v 0.18124576562499994 0.3924921999868699 0.38001649609374993
v 0.18124570312499994 0.3128036374868699 0.3800164335937499
v 0.18124570312499994 0.31280363748686985 0.6190821210937499
v 0.300778578125 0.39249213748686984 0.6190821210937499
v 0.300778578125 0.31280357498686984 0.6190821210937499
v 0.300778578125 0.3924921999868699 0.38001649609374993
v 0.300778578125 0.31280357498686995 0.3800164335937499
v 0.300778578125 0.3924921999868699 0.30032793359374993
v 0.300778578125 0.31280357498686995 0.30032787109374987
v 0.6992213281249999 0.3924919499868698 0.6987706835937499
v 0.300778578125 0.39249213748686984 0.6987706835937499
v 0.300778578125 0.31280357498686984 0.6987706835937499
v 0.6992213281249999 0.3128034499868698 0.6987706835937499
v 0.6992213281249999 0.3924920124868698 0.6190821210937499
v 0.6992213281249999 0.3128034499868698 0.6190821210937499
v 0.6992213281249999 0.39249201248686993 0.30032793359374993
v 0.6992213281249999 0.3128035124868699 0.30032787109374987
v 0.6992213281249999 0.3924920124868699 0.38001649609374993
v 0.6992213281249999 0.31280344998686993 0.3800164335937499
v 0.8187542031249999 0.39249194998686987 0.6190821210937499
v 0.8187542031249999 0.31280338748686987 0.6190821210937499
v 0.8187542031249999 0.3924920124868699 0.38001649609374993
v 0.8187542031249999 0.31280344998686993 0.3800164335937499
vt 0.15625 0.546875
vt 0.15625 0.640625
vt 0.125 0.640625
vt 0.125 0.546875
vt 0.171875 0.578125
vt 0.125 0.578125
vt 0.125 0.546875
vt 0.171875 0.546875
vt 0.125 0.609375
vt 0.171875 0.609375
vt 0.171875 0.640625
vt 0.125 0.640625
vt 0.171875 0.640625
vt 0.171875 0.546875
vt 0.125 0.546875
vt 0.125 0.640625
vt 0.125 0.640625
vt 0.125 0.546875
vt 0.171875 0.546875
vt 0.171875 0.640625
vt 0.203125 0.546875
vt 0.171875 0.546875
vt 0.171875 0.515625
vt 0.203125 0.515625
vt 0.328125 0.640625
vt 0.171875 0.640625
vt 0.171875 0.671875
vt 0.328125 0.671875
vt 0.203125 0.546875
vt 0.171875 0.546875
vt 0.171875 0.515625
vt 0.203125 0.515625
vt 0.328125 0.546875
vt 0.171875 0.546875
vt 0.171875 0.515625
vt 0.328125 0.515625
vt 0.328125 0.640625
vt 0.328125 0.671875
vt 0.171875 0.671875
vt 0.171875 0.640625
vt 0.328125 0.640625
vt 0.328125 0.671875
vt 0.171875 0.671875
vt 0.171875 0.640625
vt 0.328125 0.515625
vt 0.328125 0.546875
vt 0.171875 0.546875
vt 0.171875 0.515625
vt 0.328125 0.515625
vt 0.328125 0.546875
vt 0.171875 0.546875
vt 0.171875 0.515625
vt 0.328125 0.546875
vt 0.296875 0.546875
vt 0.296875 0.515625
vt 0.328125 0.515625
vt 0.328125 0.546875
vt 0.296875 0.546875
vt 0.296875 0.515625
vt 0.328125 0.515625
vt 0.328125 0.546875
vt 0.328125 0.640625
vt 0.171875 0.640625
vt 0.171875 0.546875
vt 0.328125 0.546875
vt 0.328125 0.640625
vt 0.171875 0.640625
vt 0.171875 0.546875
vt 0.375 0.609375
vt 0.328125 0.609375
vt 0.328125 0.640625
vt 0.375 0.640625
vt 0.34375 0.546875
vt 0.34375 0.640625
vt 0.375 0.640625
vt 0.375 0.546875
vt 0.328125 0.578125
vt 0.375 0.578125
vt 0.375 0.546875
vt 0.328125 0.546875
vt 0.375 0.546875
vt 0.375 0.640625
vt 0.328125 0.640625
vt 0.328125 0.546875
vt 0.328125 0.546875
vt 0.328125 0.640625
vt 0.375 0.640625
vt 0.375 0.546875
vn -0.9999999999996926 7.843032682226752e-7 1.8211558994932329e-22
vn 0 0 1
vn 0 7.843026530915416e-7 -0.9999999999996926
vn -5.228687087859934e-7 -0.9999999999998633 -4.644008248256056e-16
vn 5.22868982177823e-7 0.9999999999998633 2.322004731179994e-16
vn -1 0 0
vn 0 0 1
vn 1 0 0
vn 3.6907931750960606e-13 7.843038840513753e-7 -0.9999999999996925
vn -3.1372135649968816e-7 -0.9999999999999508 0
vn 4.705820347495034e-7 0.9999999999998894 0
vn 4.705820347495034e-7 0.9999999999998894 0
vn -3.1372135649959165e-7 -0.9999999999996434 -7.843032675260346e-7
vn 1 0 0
vn -1 0 0
vn 3.1372135649967747e-7 0.9999999999999166 2.61434491321126e-7
vn -3.1372135649968816e-7 -0.9999999999999509 -4.644008248256463e-16
vn 0 0 1
vn 1 0 0
vn 0 7.843032682226758e-7 -0.9999999999996926
vn -5.228687083215752e-7 -0.9999999999998292 -2.614344229731278e-7
vn 5.22868708321593e-7 0.9999999999998633 2.3220047311799947e-16
usemtl m_0b41602a-5e41-aca7-d180-233d2bdbfdbb
f 217/585/147 218/586/147 219/587/147 220/588/147
f 221/589/148 217/590/148 220/591/148 222/592/148
f 218/593/149 223/594/149 224/595/149 219/596/149
f 224/597/150 222/598/150 220/599/150 219/600/150
f 218/601/151 217/602/151 221/603/151 223/604/151
f 223/605/152 225/606/152 226/607/152 224/608/152
f 227/609/153 228/610/153 229/611/153 230/612/153
f 231/613/154 227/614/154 230/615/154 232/616/154
f 225/617/155 233/618/155 234/619/155 226/620/155
f 232/621/156 230/622/156 229/623/156 222/624/156
f 221/625/157 228/626/157 227/627/157 231/628/157
f 225/629/158 223/630/158 235/631/158 233/632/158
f 234/633/159 236/634/159 224/635/159 226/636/159
f 233/637/160 235/638/160 236/639/160 234/640/160
f 228/641/161 221/642/161 222/643/161 229/644/161
f 223/645/162 221/646/162 231/647/162 235/648/162
f 236/649/163 232/650/163 222/651/163 224/652/163
f 237/653/164 231/654/164 232/655/164 238/656/164
f 239/657/165 237/658/165 238/659/165 240/660/165
f 235/661/166 239/662/166 240/663/166 236/664/166
f 240/665/167 238/666/167 232/667/167 236/668/167
f 235/669/168 231/670/168 237/671/168 239/672/168
o cube.004
v 0.26093432812499995 0.35264788748686987 0.5393935585937499
v 0.26093432812499995 0.35264788748686987 0.45970499609374993
v 0.260934265625 0.2729593249868699 0.4597049960937499
v 0.260934265625 0.27295932498686987 0.5393935585937499
v 0.340622828125 0.35264782498686986 0.5393935585937499
v 0.340622828125 0.27295932498686987 0.5393935585937499
v 0.340622828125 0.35264782498686986 0.45970499609374993
v 0.340622828125 0.2729593249868699 0.4597049960937499
vt 0.34375 0.578125
vt 0.3125 0.578125
vt 0.3125 0.609375
vt 0.34375 0.609375
vt 0.34375 0.578125
vt 0.3125 0.578125
vt 0.3125 0.609375
vt 0.34375 0.609375
vt 0.3125 0.578125
vt 0.34375 0.578125
vt 0.34375 0.609375
vt 0.3125 0.609375
vt 0.3125 0.578125
vt 0.34375 0.578125
vt 0.34375 0.609375
vt 0.3125 0.609375
vt 0.3125 0.578125
vt 0.34375 0.578125
vt 0.34375 0.609375
vt 0.3125 0.609375
vt 0.3125 0.578125
vt 0.34375 0.578125
vt 0.34375 0.609375
vt 0.3125 0.609375
vn -0.9999999999996926 7.843032675260745e-7 0
vn 0 0 1
vn 1 0 0
vn 5.463474840181839e-22 6.966017835855597e-16 -1
vn 0 -1 -6.966012372385032e-16
vn 7.843038833547737e-7 0.9999999999996926 0
usemtl m_0b41602a-5e41-aca7-d180-233d2bdbfdbb
f 241/673/169 242/674/169 243/675/169 244/676/169
f 245/677/170 241/678/170 244/679/170 246/680/170
f 247/681/171 245/682/171 246/683/171 248/684/171
f 242/685/172 247/686/172 248/687/172 243/688/172
f 248/689/173 246/690/173 244/691/173 243/692/173
f 242/693/174 241/694/174 245/695/174 247/696/174
o cube.005
v 0.6593770781249999 0.35264776248686985 0.5393935585937499
v 0.6593770781249999 0.3526477624868699 0.45970499609374993
v 0.6593770781249999 0.2729591999868699 0.4597049960937499
v 0.6593770781249999 0.27295919998686985 0.5393935585937499
v 0.739065640625 0.35264769998686984 0.5393935585937499
v 0.739065578125 0.27295919998686985 0.5393935585937499
v 0.739065640625 0.3526476999868699 0.45970499609374993
v 0.739065578125 0.2729591999868699 0.4597049960937499
vt 0.3125 0.578125
vt 0.34375 0.578125
vt 0.34375 0.609375
vt 0.3125 0.609375
vt 0.3125 0.578125
vt 0.34375 0.578125
vt 0.34375 0.609375
vt 0.3125 0.609375
vt 0.3125 0.578125
vt 0.34375 0.578125
vt 0.34375 0.609375
vt 0.3125 0.609375
vt 0.3125 0.578125
vt 0.34375 0.578125
vt 0.34375 0.609375
vt 0.3125 0.609375
vt 0.3125 0.578125
vt 0.34375 0.578125
vt 0.34375 0.609375
vt 0.3125 0.609375
vt 0.3125 0.578125
vt 0.34375 0.578125
vt 0.34375 0.609375
vt 0.3125 0.609375
vn -1 0 0
vn 0 0 1
vn 0.9999999999996926 -7.843038840513759e-7 -5.463470560011523e-22
vn 5.4634705551572975e-22 6.966017835851306e-16 -1
vn 0 -1 -6.966012372385032e-16
vn 7.84303268222674e-7 0.9999999999996926 6.966012372382896e-16
usemtl m_0b41602a-5e41-aca7-d180-233d2bdbfdbb
f 249/697/175 250/698/175 251/699/175 252/700/175
f 253/701/176 249/702/176 252/703/176 254/704/176
f 255/705/177 253/706/177 254/707/177 256/708/177
f 250/709/178 255/710/178 256/711/178 251/712/178
f 256/713/179 254/714/179 252/715/179 251/716/179
f 250/717/180 249/718/180 253/719/180 255/720/180
o Circle.018
v 0.8041794531249999 0.6644218249868699 0.6259831835937499
v 0.6259831406249999 0.6644218249868699 0.80417949609375
v 0.552049453125 0.6644218249868699 0.62567074609375
v 0.625670703125 0.6644218249868699 0.5520495585937499
v 0.804170953125 0.6644218249868699 0.37399618359375
v 0.6256672031249999 0.6644218249868699 0.44794193359375
v 0.6259831406249999 0.6644218874868699 0.19582055859374997
v 0.5520495156249999 0.6644218249868699 0.37432930859375
v 0.373996140625 0.66442182498687 0.19582905859375
v 0.44794195312499996 0.6644218249868699 0.37433280859374995
v 0.373996140625 0.6644218249868699 0.80417080859375
v 0.19582057812499998 0.6644218249868699 0.62598305859375
v 0.37432932812499997 0.6644218249868699 0.55204949609375
v 0.44794189062499995 0.6644218249868699 0.62566712109375
v 0.19582057812499998 0.3706718249868699 0.37401680859374986
v 0.373996140625 0.37067182498686996 0.19582905859374994
v 0.44794195312499996 0.3706718249868699 0.3743328710937499
v 0.37432932812499997 0.3706718249868699 0.44795049609374993
v 0.19582057812499998 0.37067182498686985 0.6259830585937499
v 0.37432932812499997 0.37067182498686985 0.5520494960937499
v 0.6259831406249999 0.3706718249868698 0.8041794960937498
v 0.373996140625 0.3706718249868698 0.8041708085937499
v 0.44794189062499995 0.37067182498686985 0.62566718359375
v 0.552049453125 0.37067182498686985 0.62567074609375
v 0.625983203125 0.37067182498686996 0.19582055859374992
v 0.5520495156249999 0.3706718249868699 0.3743293085937499
v 0.804170953125 0.3706718249868699 0.37399618359374986
v 0.6256672031249999 0.3706718249868699 0.4479419335937499
v 0.8041794531249999 0.37067182498686985 0.6259831835937499
v 0.625670703125 0.37067182498686985 0.5520495585937499
v 0.19582057812499998 0.6644218874868699 0.37401680859374997
v 0.37432932812499997 0.6644218249868699 0.44795049609375
vt 0.903386 0.01723399999999997
vt 0.971399 0.08525099999999997
vt 0.903264 0.11346699999999998
vt 0.875165 0.08536600000000005
vt 0.807207 0.01723399999999997
vt 0.903386 0.01723399999999997
vt 0.875165 0.08536600000000005
vt 0.835429 0.08536600000000005
vt 0.739198 0.08524299999999996
vt 0.807207 0.01723399999999997
vt 0.835429 0.08536600000000005
vt 0.807331 0.11346400000000001
vt 0.739198 0.18142199999999997
vt 0.739198 0.08524299999999996
vt 0.807331 0.11346400000000001
vt 0.807331 0.1532
vt 0.971392 0.18142999999999998
vt 0.903379 0.24943399999999993
vt 0.875162 0.181299
vt 0.903261 0.153204
vt 0.971399 0.08525099999999997
vt 0.971392 0.18142999999999998
vt 0.903261 0.153204
vt 0.903264 0.11346699999999998
vt 0.807207 0.24943099999999996
vt 0.739198 0.18142199999999997
vt 0.807331 0.1532
vt 0.835429 0.18129799999999996
vt 0.903379 0.24943399999999993
vt 0.807207 0.24943099999999996
vt 0.835429 0.18129799999999996
vt 0.875162 0.181299
vt 0.971399 0.08525099999999997
vt 0.971392 0.18142999999999998
vt 0.903261 0.153204
vt 0.903264 0.11346699999999998
vt 0.971392 0.18142999999999998
vt 0.903379 0.24943399999999993
vt 0.875162 0.181299
vt 0.903261 0.153204
vt 0.739198 0.18142199999999997
vt 0.739198 0.08524299999999996
vt 0.807331 0.11346400000000001
vt 0.807331 0.1532
vt 0.739198 0.08524299999999996
vt 0.807207 0.01723399999999997
vt 0.835429 0.08536600000000005
vt 0.807331 0.11346400000000001
vt 0.807207 0.01723399999999997
vt 0.903386 0.01723399999999997
vt 0.875165 0.08536600000000005
vt 0.835429 0.08536600000000005
vt 0.903386 0.01723399999999997
vt 0.971399 0.08525099999999997
vt 0.903264 0.11346699999999998
vt 0.875165 0.08536600000000005
vt 0.903379 0.24943399999999993
vt 0.807207 0.24943099999999996
vt 0.835429 0.18129799999999996
vt 0.875162 0.181299
vt 0.807207 0.24943099999999996
vt 0.739198 0.18142199999999997
vt 0.807331 0.1532
vt 0.835429 0.18129799999999996
vn 0 -1 0
vn 0 -1 0
vn -1.0274524424532929e-7 -0.999999999999964 -2.4802522649993e-7
vn 2.480203227082305e-7 -0.9999999999999388 -2.4739940497456923e-7
vn 0 -1 0
vn 0 -1 0
vn 3.9005121526270226e-19 -1 -3.111417795924502e-16
vn 9.124744660219504e-17 -1 -2.203118522074199e-16
vn 1.0721206798682583e-20 -1 -3.10976084903487e-16
vn -9.124111276790391e-17 -1 -2.2029693197602314e-16
vn -1.0489806442038162e-20 -1 -3.1097594253127224e-16
vn -9.125611794784808e-17 -1 -2.2029067612585156e-16
vn 9.124113037155393e-17 -1 -2.202967882504493e-16
vn 3.855514231919774e-19 -1 -3.1113128331073588e-16
vn -2.4738740176074024e-7 -0.9999999999999387 -2.480490941316285e-7
vn -2.48025252091466e-7 -0.9999999999999641 1.0274534106649565e-7
usemtl m_0b41602a-5e41-aca7-d180-233d2bdbfdbb
f 257/721/181 258/722/181 259/723/181 260/724/181
f 261/725/182 257/726/182 260/727/182 262/728/182
f 263/729/183 261/730/183 262/731/183 264/732/183
f 265/733/184 263/734/184 264/735/184 266/736/184
f 267/737/185 268/738/185 269/739/185 270/740/185
f 258/741/186 267/742/186 270/743/186 259/744/186
f 271/745/187 272/746/187 273/747/187 274/748/187
f 275/749/188 271/750/188 274/751/188 276/752/188
f 277/753/189 278/754/189 279/755/189 280/756/189
f 278/757/190 275/758/190 276/759/190 279/760/190
f 272/761/191 281/762/191 282/763/191 273/764/191
f 281/765/192 283/766/192 284/767/192 282/768/192
f 283/769/193 285/770/193 286/771/193 284/772/193
f 285/773/194 277/774/194 280/775/194 286/776/194
f 268/777/195 287/778/195 288/779/195 269/780/195
f 287/781/196 265/782/196 266/783/196 288/784/196
o Circle.005
v -0.129800796875 0.6644218874868703 -1.02158569140625
v 1.1291791406249998 0.6644220124868703 -1.0199474414062502
v 1.1291791406249998 0.3716841999868702 -1.0199474414062502
v -0.129800796875 0.3712348874868702 -1.02158569140625
v 0.038408203124999984 0.6644218874868701 -0.61549319140625
v 0.038408203124999984 0.3712348874868701 -0.61549319140625
v 0.9621744531249999 0.3712349499868701 -0.61335600390625
v 0.9621744531249999 0.6644219499868701 -0.61335600390625
v 0.380209015625 0.3712348874868701 -0.6158575039062502
v 0.380209015625 0.3712348874868701 -0.5002887539062502
v 0.380209015625 0.6644218874868701 -0.5002887539062502
v 0.38020895312499997 0.6644218874868701 -0.6158575039062502
v 0.619766953125 0.6644219499868701 -0.61585737890625
v 0.619766890625 0.6644219499868701 -0.5002887539062502
v 0.619766953125 0.3712349499868701 -0.5002887539062502
v 0.619766953125 0.3712349499868701 -0.61585737890625
v 0.41993445312499994 0.6273365749868701 -0.5002887539062502
v 0.41993445312499994 0.4083202624868701 -0.5002887539062502
v 0.5793690781249999 0.4083202624868701 -0.5002887539062502
v 0.5793690781249999 0.6273365749868701 -0.5002887539062502
v 1.130587203125 0.6644220124868703 -1.02126000390625
v 2.0196618906249997 0.66442207498687 -0.12986806640625004
v 2.0196618906249997 0.37168432498687 -0.12986806640625004
v 1.130587265625 0.3712350124868702 -1.02126000390625
v 0.9623781406249999 0.6644219499868701 -0.6151675039062501
v 0.9623781406249999 0.3712349499868701 -0.6151675039062501
v 1.614068265625 0.37123501248686996 0.039545246093749875
v 1.614068265625 0.6644220124868699 0.039545246093749875
v 1.204325453125 0.37123494998687007 -0.3737353789062501
v 1.122606015625 0.37123494998687007 -0.2920159414062501
v 1.122606015625 0.66442194998687 -0.2920159414062501
v 1.204325453125 0.6644219499868701 -0.3737353789062501
v 1.3737183906250001 0.66442188748687 -0.2043421914062501
v 1.291999015625 0.66442188748687 -0.12262287890625012
v 1.291999015625 0.37123488748687 -0.12262287890625012
v 1.3737183906250001 0.37123494998687 -0.2043421914062501
v 1.1506962031249999 0.62733657498687 -0.2639258164062501
v 1.1506962031249999 0.40832026248687003 -0.2639258164062501
v 1.263433453125 0.40832026248687003 -0.15118850390625005
v 1.263433453125 0.62733657498687 -0.15118850390625005
v 2.021585703125 0.66442188748687 -0.12980056640625004
v 2.0199472031249996 0.6644218249868697 1.1291793710937499
v 2.0199472031249996 0.37168407498686973 1.1291793710937499
v 2.021585703125 0.37123494998687 -0.12980056640625004
v 1.6154930781249999 0.6644218874868699 0.03840837109374995
v 1.6154930781249999 0.37123488748687 0.038408308593749885
v 1.613355765625 0.37123482498686977 0.96217455859375
v 1.613355765625 0.6644218249868697 0.96217462109375
v 1.615857515625 0.3712348874868699 0.3802089335937499
v 1.500288890625 0.3712348874868699 0.3802088710937499
v 1.500288890625 0.6644218874868699 0.38020887109375
v 1.615857515625 0.6644218874868699 0.38020893359374996
v 1.615857390625 0.37123488748686984 0.6197668085937499
v 1.500288890625 0.37123488748686984 0.61976687109375
v 1.500288890625 0.4083201999868699 0.4199343085937499
v 1.5002889531249999 0.40832019998686986 0.5793689960937499
v 1.500288890625 0.62733651248687 0.41993437109375
v 1.615857390625 0.6644218874868699 0.61976680859375
v 1.500288890625 0.6644218874868699 0.61976687109375
v 1.5002889531249999 0.6273365124868698 0.5793689960937499
v 2.021259890625 0.6644218874868697 1.13058693359375
v 1.129868328125 0.6644217624868696 2.0196616835937498
v 1.129868328125 0.37168401248686955 2.0196616835937498
v 2.021259890625 0.3712348874868697 1.13058693359375
v 1.615167515625 0.6644218874868698 0.96237793359375
v 1.615167515625 0.3712348874868698 0.96237787109375
v 0.960454953125 0.3712348249868696 1.6140679960937498
v 0.960454953125 0.6644218249868696 1.6140679960937498
v 1.373735265625 0.3712348249868697 1.20432549609375
v 1.292015953125 0.3712348249868697 1.12260612109375
v 1.292015953125 0.6644218249868697 1.12260612109375
v 1.373735265625 0.6644218249868697 1.20432549609375
v 1.2043420781249998 0.37123482498686966 1.37371843359375
v 1.122622765625 0.3712348249868697 1.2919991210937498
v 1.263925703125 0.40832019998686975 1.1506962460937498
v 1.151188390625 0.4083201999868697 1.26343355859375
v 1.263925703125 0.6273365124868697 1.1506962460937498
v 1.2043420781249998 0.6644218249868696 1.37371843359375
v 1.122622765625 0.6644218249868696 1.2919991210937498
v 1.151188390625 0.6273364499868697 1.26343355859375
v 1.129800328125 0.6644218874868695 2.02158555859375
v -0.129179546875 0.6644216999868695 2.01994693359375
v -0.12917948437500004 0.37168394998686954 2.01994693359375
v 1.1298003906249998 0.37123494998686957 2.02158555859375
v 0.9615914531249999 0.6644218874868697 1.61549293359375
v 0.9615915156249999 0.3712348874868696 1.61549293359375
v 0.037825328124999946 0.37123476248686965 1.61335549609375
v 0.03782526562499994 0.6644217624868696 1.61335549609375
v 0.6197908906249999 0.3712348249868696 1.6158576210937499
v 0.619790953125 0.37123482498686966 1.50028880859375
v 0.619790953125 0.6644218249868696 1.50028880859375
v 0.6197908906249999 0.6644218249868696 1.6158576210937499
v 0.38023295312499994 0.3712348249868696 1.6158573710937498
v 0.38023301562499995 0.37123482498686966 1.50028880859375
v 0.580065390625 0.4083201374868697 1.50028880859375
v 0.42063082812499997 0.4083201374868697 1.50028893359375
v 0.580065390625 0.6273364499868697 1.50028880859375
v 0.38023295312499994 0.6644218249868696 1.6158573710937498
v 0.38023301562499995 0.6644218249868696 1.50028880859375
v 0.42063082812499997 0.6273364499868697 1.50028893359375
v -0.13058742187500005 0.6644216999868695 2.02125968359375
v -1.019661859375 0.6644215124868698 1.12986787109375
v -1.019661859375 0.37168382498686975 1.12986787109375
v -0.130587359375 0.37123469998686953 2.02125968359375
v 0.03762170312499996 0.6644217624868696 1.61516712109375
v 0.03762176562499997 0.3712347624868696 1.61516712109375
v -0.6140682343750001 0.3712346374868698 0.96045449609375
v -0.6140682343750001 0.6644216374868698 0.96045449609375
v -0.20432567187500006 0.37123482498686966 1.37373518359375
v -0.12260623437500007 0.3712348249868697 1.29201574609375
v -0.12260623437500007 0.6644218249868696 1.29201574609375
v -0.20432567187500006 0.6644218249868696 1.37373518359375
v -0.3737186718750001 0.3712348249868697 1.20434187109375
v -0.291999171875 0.3712348249868697 1.12262262109375
v -0.15069635937500003 0.4083201999868697 1.2639255585937499
v -0.26343360937500004 0.40832019998686975 1.15118824609375
v -0.15069635937500003 0.6273364499868697 1.2639255585937499
v -0.3737186718750001 0.6644218249868697 1.20434187109375
v -0.291999171875 0.6644218249868697 1.12262262109375
v -0.26343360937500004 0.6273365124868697 1.15118824609375
v -1.021585921875 0.6644213249868698 1.1297998710937498
v -1.019947046875 0.6644213874868701 -0.1291799414062501
v -1.0199469218750001 0.37168363748687 -0.1291799414062501
v -1.021585796875 0.37123438748686977 1.1297998710937498
v -0.6154934218750001 0.6644214499868698 0.96159112109375
v -0.615493296875 0.3712345124868698 0.96159112109375
v -0.6133556093750001 0.37123457498686996 0.03782487109374988
v -0.613355734375 0.66442151248687 0.03782493359374994
v -0.6158576093750001 0.37123488748686984 0.6197906835937499
v -0.5002888593750001 0.37123488748686984 0.6197906835937499
v -0.5002888593750001 0.6644218874868699 0.61979068359375
v -0.6158576093750001 0.6644218874868699 0.61979074609375
v -0.6158573593750001 0.3712348874868699 0.38023280859374986
v -0.500288734375 0.3712348874868699 0.3802327460937499
v -0.5002888593750001 0.40832019998686986 0.5800652460937499
v -0.5002888593750001 0.4083201999868699 0.42063062109374993
v -0.5002888593750001 0.6273365124868698 0.58006524609375
v -0.6158573593750001 0.6644218874868699 0.38023280859374997
v -0.500288734375 0.6644218874868699 0.38023274609375
v -0.5002888593750001 0.62733651248687 0.42063062109374993
v -1.021259671875 0.66442207498687 -0.13058756640625002
v -0.12986760937500008 0.6644220749868702 -1.01966200390625
v -0.12986767187500003 0.3716842624868702 -1.01966200390625
v -1.021259671875 0.37123513748687 -0.13058756640625002
v -0.6151672343750001 0.66442207498687 0.03762162109374989
v -0.6151672343750001 0.37123507498687 0.03762155859374994
v 0.03954557812499998 0.37123501248687013 -0.61406837890625
v 0.039545640624999934 0.6644220124868702 -0.61406837890625
v -0.37373548437500004 0.37123482498687005 -0.20432531640625007
v -0.2920159843750001 0.37123482498687 -0.12260594140625003
v -0.29201604687500005 0.6644218249868701 -0.12260594140625003
v -0.373735546875 0.6644218249868701 -0.20432531640625007
v -0.204342359375 0.37123482498687005 -0.37371825390625
v -0.12262292187500001 0.37123482498687005 -0.29199894140625005
v -0.2639259218750001 0.40832019998687 -0.1506960664062501
v -0.15118854687500005 0.40832019998687 -0.2634333164062501
v -0.2639259218750001 0.62733644998687 -0.1506960664062501
v -0.20434242187500007 0.6644218249868701 -0.37371825390625
v -0.12262298437500008 0.6644218249868701 -0.29199894140625005
v -0.15118854687500005 0.6273365124868701 -0.2634333164062501
vt 0.84375 0.328125
vt 0.84375 0.796875
vt 0.71875 0.796875
vt 0.71875 0.328125
vt 0.5625 0.421875
vt 0.4375 0.421875
vt 0.4375 0.796875
vt 0.5625 0.796875
vt 0.0625 0.84375
vt 0.4375 0.84375
vt 0.5 1
vt 0 1
vt 0.0625 0.84375
vt 0.005234 1.000322
vt 0.5 1
vt 0.4375 0.84375
vt 0.734375 0.90625
vt 0.734375 0.859375
vt 0.625 0.859375
vt 0.625 0.90625
vt 0.625 0.90625
vt 0.625 0.859375
vt 0.734375 0.859375
vt 0.734375 0.90625
vt 0.203125 0.84375
vt 0.203125 0.796875
vt 0.296875 0.796875
vt 0.296875 0.84375
vt 0.296875 0.84375
vt 0.296875 0.796875
vt 0.203125 0.796875
vt 0.203125 0.84375
vt 0.40625 0.859375
vt 0.421875 0.84375
vt 0.296875 0.84375
vt 0.3125 0.859375
vt 0.3125 0.921875
vt 0.296875 0.9375
vt 0.421875 0.9375
vt 0.40625 0.921875
vt 0.40625 0.921875
vt 0.421875 0.9375
vt 0.421875 0.84375
vt 0.40625 0.859375
vt 0.3125 0.859375
vt 0.296875 0.84375
vt 0.296875 0.9375
vt 0.3125 0.921875
vt 0.84375 0.328125
vt 0.84375 0.796875
vt 0.71875 0.796875
vt 0.71875 0.328125
vt 0.5625 0.421875
vt 0.4375 0.421875
vt 0.4375 0.796875
vt 0.5625 0.796875
vt 0.0625 0.84375
vt 0.4375 0.84375
vt 0.5 1
vt 0 1
vt 0.0625 0.84375
vt 0.005234 1.000322
vt 0.5 1
vt 0.4375 0.84375
vt 0.734375 0.90625
vt 0.734375 0.859375
vt 0.625 0.859375
vt 0.625 0.90625
vt 0.625 0.90625
vt 0.625 0.859375
vt 0.734375 0.859375
vt 0.734375 0.90625
vt 0.203125 0.84375
vt 0.203125 0.796875
vt 0.296875 0.796875
vt 0.296875 0.84375
vt 0.296875 0.84375
vt 0.296875 0.796875
vt 0.203125 0.796875
vt 0.203125 0.84375
vt 0.40625 0.859375
vt 0.421875 0.84375
vt 0.296875 0.84375
vt 0.3125 0.859375
vt 0.3125 0.921875
vt 0.296875 0.9375
vt 0.421875 0.9375
vt 0.40625 0.921875
vt 0.40625 0.921875
vt 0.421875 0.9375
vt 0.421875 0.84375
vt 0.40625 0.859375
vt 0.3125 0.859375
vt 0.296875 0.84375
vt 0.296875 0.9375
vt 0.3125 0.921875
vt 0.84375 0.328125
vt 0.84375 0.796875
vt 0.71875 0.796875
vt 0.71875 0.328125
vt 0.5625 0.421875
vt 0.4375 0.421875
vt 0.4375 0.796875
vt 0.5625 0.796875
vt 0.0625 0.84375
vt 0.4375 0.84375
vt 0.5 1
vt 0 1
vt 0.0625 0.84375
vt 0.005234 1.000322
vt 0.5 1
vt 0.4375 0.84375
vt 0.734375 0.90625
vt 0.734375 0.859375
vt 0.625 0.859375
vt 0.625 0.90625
vt 0.296875 0.84375
vt 0.296875 0.796875
vt 0.203125 0.796875
vt 0.203125 0.84375
vt 0.3125 0.859375
vt 0.296875 0.84375
vt 0.296875 0.9375
vt 0.3125 0.921875
vt 0.40625 0.859375
vt 0.421875 0.84375
vt 0.296875 0.84375
vt 0.3125 0.859375
vt 0.625 0.90625
vt 0.625 0.859375
vt 0.734375 0.859375
vt 0.734375 0.90625
vt 0.3125 0.921875
vt 0.296875 0.9375
vt 0.421875 0.9375
vt 0.40625 0.921875
vt 0.40625 0.921875
vt 0.421875 0.9375
vt 0.421875 0.84375
vt 0.40625 0.859375
vt 0.203125 0.84375
vt 0.203125 0.796875
vt 0.296875 0.796875
vt 0.296875 0.84375
vt 0.84375 0.328125
vt 0.84375 0.796875
vt 0.71875 0.796875
vt 0.71875 0.328125
vt 0.5625 0.421875
vt 0.4375 0.421875
vt 0.4375 0.796875
vt 0.5625 0.796875
vt 0.0625 0.84375
vt 0.4375 0.84375
vt 0.5 1
vt 0 1
vt 0.0625 0.84375
vt 0.005234 1.000322
vt 0.5 1
vt 0.4375 0.84375
vt 0.734375 0.90625
vt 0.734375 0.859375
vt 0.625 0.859375
vt 0.625 0.90625
vt 0.296875 0.84375
vt 0.296875 0.796875
vt 0.203125 0.796875
vt 0.203125 0.84375
vt 0.3125 0.859375
vt 0.296875 0.84375
vt 0.296875 0.9375
vt 0.3125 0.921875
vt 0.40625 0.859375
vt 0.421875 0.84375
vt 0.296875 0.84375
vt 0.3125 0.859375
vt 0.625 0.90625
vt 0.625 0.859375
vt 0.734375 0.859375
vt 0.734375 0.90625
vt 0.3125 0.921875
vt 0.296875 0.9375
vt 0.421875 0.9375
vt 0.40625 0.921875
vt 0.40625 0.921875
vt 0.421875 0.9375
vt 0.421875 0.84375
vt 0.40625 0.859375
vt 0.203125 0.84375
vt 0.203125 0.796875
vt 0.296875 0.796875
vt 0.296875 0.84375
vt 0.84375 0.328125
vt 0.84375 0.796875
vt 0.71875 0.796875
vt 0.71875 0.328125
vt 0.5625 0.421875
vt 0.4375 0.421875
vt 0.4375 0.796875
vt 0.5625 0.796875
vt 0.0625 0.84375
vt 0.4375 0.84375
vt 0.5 1
vt 0 1
vt 0.0625 0.84375
vt 0.005234 1.000322
vt 0.5 1
vt 0.4375 0.84375
vt 0.734375 0.90625
vt 0.734375 0.859375
vt 0.625 0.859375
vt 0.625 0.90625
vt 0.296875 0.84375
vt 0.296875 0.796875
vt 0.203125 0.796875
vt 0.203125 0.84375
vt 0.3125 0.859375
vt 0.296875 0.84375
vt 0.296875 0.9375
vt 0.3125 0.921875
vt 0.40625 0.859375
vt 0.421875 0.84375
vt 0.296875 0.84375
vt 0.3125 0.859375
vt 0.625 0.90625
vt 0.625 0.859375
vt 0.734375 0.859375
vt 0.734375 0.90625
vt 0.3125 0.921875
vt 0.296875 0.9375
vt 0.421875 0.9375
vt 0.40625 0.921875
vt 0.40625 0.921875
vt 0.421875 0.9375
vt 0.421875 0.84375
vt 0.40625 0.859375
vt 0.203125 0.84375
vt 0.203125 0.796875
vt 0.296875 0.796875
vt 0.296875 0.84375
vt 0.84375 0.328125
vt 0.84375 0.796875
vt 0.71875 0.796875
vt 0.71875 0.328125
vt 0.5625 0.421875
vt 0.4375 0.421875
vt 0.4375 0.796875
vt 0.5625 0.796875
vt 0.0625 0.84375
vt 0.4375 0.84375
vt 0.5 1
vt 0 1
vt 0.0625 0.84375
vt 0.005234 1.000322
vt 0.5 1
vt 0.4375 0.84375
vt 0.734375 0.90625
vt 0.734375 0.859375
vt 0.625 0.859375
vt 0.625 0.90625
vt 0.296875 0.84375
vt 0.296875 0.796875
vt 0.203125 0.796875
vt 0.203125 0.84375
vt 0.3125 0.859375
vt 0.296875 0.84375
vt 0.296875 0.9375
vt 0.3125 0.921875
vt 0.40625 0.859375
vt 0.421875 0.84375
vt 0.296875 0.84375
vt 0.3125 0.859375
vt 0.625 0.90625
vt 0.625 0.859375
vt 0.734375 0.859375
vt 0.734375 0.90625
vt 0.3125 0.921875
vt 0.296875 0.9375
vt 0.421875 0.9375
vt 0.40625 0.921875
vt 0.40625 0.921875
vt 0.421875 0.9375
vt 0.421875 0.84375
vt 0.40625 0.859375
vt 0.203125 0.84375
vt 0.203125 0.796875
vt 0.296875 0.796875
vt 0.296875 0.84375
vt 0.84375 0.328125
vt 0.84375 0.796875
vt 0.71875 0.796875
vt 0.71875 0.328125
vt 0.5625 0.421875
vt 0.4375 0.421875
vt 0.4375 0.796875
vt 0.5625 0.796875
vt 0.0625 0.84375
vt 0.4375 0.84375
vt 0.5 1
vt 0 1
vt 0.0625 0.84375
vt 0.005234 1.000322
vt 0.5 1
vt 0.4375 0.84375
vt 0.734375 0.90625
vt 0.734375 0.859375
vt 0.625 0.859375
vt 0.625 0.90625
vt 0.296875 0.84375
vt 0.296875 0.796875
vt 0.203125 0.796875
vt 0.203125 0.84375
vt 0.3125 0.859375
vt 0.296875 0.84375
vt 0.296875 0.9375
vt 0.3125 0.921875
vt 0.40625 0.859375
vt 0.421875 0.84375
vt 0.296875 0.84375
vt 0.3125 0.859375
vt 0.625 0.90625
vt 0.625 0.859375
vt 0.734375 0.859375
vt 0.734375 0.90625
vt 0.3125 0.921875
vt 0.296875 0.9375
vt 0.421875 0.9375
vt 0.40625 0.921875
vt 0.40625 0.921875
vt 0.421875 0.9375
vt 0.421875 0.84375
vt 0.40625 0.859375
vt 0.203125 0.84375
vt 0.203125 0.796875
vt 0.296875 0.796875
vt 0.296875 0.84375
vt 0.84375 0.328125
vt 0.84375 0.796875
vt 0.71875 0.796875
vt 0.71875 0.328125
vt 0.5625 0.421875
vt 0.4375 0.421875
vt 0.4375 0.796875
vt 0.5625 0.796875
vt 0.0625 0.84375
vt 0.4375 0.84375
vt 0.5 1
vt 0 1
vt 0.0625 0.84375
vt 0.005234 1.000322
vt 0.5 1
vt 0.4375 0.84375
vt 0.734375 0.90625
vt 0.734375 0.859375
vt 0.625 0.859375
vt 0.625 0.90625
vt 0.296875 0.84375
vt 0.296875 0.796875
vt 0.203125 0.796875
vt 0.203125 0.84375
vt 0.3125 0.859375
vt 0.296875 0.84375
vt 0.296875 0.9375
vt 0.3125 0.921875
vt 0.40625 0.859375
vt 0.421875 0.84375
vt 0.296875 0.84375
vt 0.3125 0.859375
vt 0.625 0.90625
vt 0.625 0.859375
vt 0.734375 0.859375
vt 0.734375 0.90625
vt 0.3125 0.921875
vt 0.296875 0.9375
vt 0.421875 0.9375
vt 0.40625 0.921875
vt 0.40625 0.921875
vt 0.421875 0.9375
vt 0.421875 0.84375
vt 0.40625 0.859375
vt 0.203125 0.84375
vt 0.203125 0.796875
vt 0.296875 0.796875
vt 0.296875 0.84375
vn 0.001301250769941619 0 -0.9999991533728585
vn -0.002313552568430694 0 0.9999973237336754
vn 6.772270763022826e-8 -0.9999999999999973 -2.8051660739352166e-8
vn -9.943360828295966e-8 0.9999999999999887 1.1287527789361226e-7
vn -1 0 0
vn 0.9999999999998312 2.1317452667824438e-7 5.408042187333672e-7
vn -2.608972881948583e-7 0.999999999999966 1.4109420162853605e-13
vn 2.608972203592043e-7 -0.999999999999966 0
vn 0 0 1
vn 0 0 1
vn 0 0 1
vn 0 0 1
vn 0.7080264701657866 0 -0.7061858944672973
vn -0.7087409174908382 0 0.7054688596063223
vn 1.7690695736790983e-7 -0.9999999999999812 -8.06285158159229e-8
vn -1.294513697968349e-7 0.99999999999999 5.899978921156457e-8
vn -0.707106781186547 0 -0.707106781186548
vn 0.7071065107843375 0 0.7071070515886543
vn 1.8448220467478334e-7 0.9999999999999659 1.8448220603336246e-7
vn 1.9792433480761776e-7 -0.9999999999998197 -5.668886050767449e-7
vn -0.7071059945373388 0 0.7071075678348812
vn -0.707107554742139 0 0.7071060076301099
vn -0.7071069116349895 -9.907285749724086e-7 0.7071066507373875
vn -0.7071069116342149 0.0000013893048231200066 0.7071066507374912
vn 0.9999991531144454 0 0.0013014493428957752
vn -0.9999973234206081 4.932193202076144e-10 -0.0023136878829609865
vn 1.260017809561791e-7 -0.9999999999999899 -6.736627913102496e-8
vn -2.037979023866391e-8 0.9999999999999987 4.9616841491555334e-8
vn 5.4080421921371e-7 3.786740220064716e-16 -0.9999999999998538
vn -1.253170309343965e-22 -1 -2.317232203944674e-16
vn -1 0 0
vn -1 0 0
vn 5.408048036724181e-7 0 0.9999999999998538
vn -0.9999999999988033 0 -0.000001547111075573352
vn -0.9999999999985799 -0.0000016853004679638205 0
vn 0 1 0
vn 0.7061860682830287 0 0.7080262968018615
vn -0.7054689610916741 1.5108548835780146e-7 -0.7087408164739853
vn 2.8051676460742776e-8 -0.9999999999999973 -6.772270056606362e-8
vn 9.504692767434003e-9 0.9999999999999887 1.501250632362899e-7
vn 0.7071070515886543 0 -0.7071065107843375
vn -3.3964505335755463e-16 -1 -3.3964542930843507e-16
vn -0.7071063898395947 -0.0000017905279084728323 -0.7071071725310168
vn -0.7071052078890024 0 -0.7071083544805921
vn -0.7071067811865495 0 0.7071067811865456
vn -0.7071060076301071 0 -0.7071075547421418
vn -0.7071063898406056 -5.888070074004356e-7 -0.7071071725320278
vn -3.2770623187856855e-16 1 3.2770598124474376e-16
vn -0.0013015486939854596 -2.7788282636300743e-10 0.99999915298514
vn 0.002313823354038774 4.932481983143665e-10 -0.9999973231071604
vn 1.3508898607307414e-7 -0.9999999999999861 9.795015011903169e-8
vn -1.4905048843619907e-7 0.9999999999999848 9.24954333056399e-8
vn 0.9999999999998538 0 5.408033422878533e-7
vn 0 -1 -4.803308964862993e-16
vn 0 0 -1
vn 0 0 -1
vn -0.9999999999998538 0 -5.408045116830721e-7
vn 0.0000030942269437448253 0 -0.999999999995213
vn 0 -0.0000033706009419006818 -0.9999999999943197
vn 0 1 0
vn -0.7080265199379978 0 0.706185844565358
vn 0.7087409178031687 1.5108550982441134e-7 -0.705468859292527
vn 2.446296709006501e-7 -0.9999999999999688 -5.257682396734124e-8
vn -2.795764672852444e-7 0.9999999999999586 6.850443293837291e-8
vn 0.707106781186547 0 0.707106781186548
vn 0 -1 0
vn 0.7071071725321681 -5.98840957560924e-7 -0.7071063898404568
vn 0.7071075678348839 0 -0.707105994537336
vn -0.7071056995775008 0 -0.7071078627939399
vn 0.7071075547421404 0 -0.7071060076301084
vn 0.7071071725321724 -5.8880777479719e-7 -0.707106389840461
vn 3.277062274736157e-16 1 3.2770622747361615e-16
vn -0.9999991527264923 -4.2700298816043205e-7 -0.0013017473315930217
vn 0.9999973224812055 4.2634800344283715e-7 0.0023140938265801144
vn 2.800553486368543e-7 -0.9999999999999587 -6.700973255645341e-8
vn -3.276495343120371e-7 0.9999999999999452 4.92168524391989e-8
vn 0 -3.786740287342741e-16 1
vn -1.253169278626957e-22 -1 -2.317232808504769e-16
vn 0.9999999999997077 5.589412914078009e-7 5.217944411817205e-7
vn 1 0 0
vn -5.408042187333784e-7 3.7867402200647093e-16 -0.9999999999998538
vn 0.999999999995213 -1.1174216944957834e-21 0.0000030942221621284823
vn 0.9999999999959378 -0.0000028021993445532732 5.217944411797533e-7
vn 0 1 0
vn -0.7061857452790344 1.5077180732906087e-7 -0.7080266189661741
vn 0.7054687238217845 -1.5108553843580051e-7 0.708741052648455
vn -1.3673187387444987e-7 -0.99999999999999 -4.14616036027629e-8
vn 1.0849485738175065e-7 0.9999999999999883 1.0877768028754808e-7
vn -0.7071062403826373 -1.507370380951957e-7 0.7071073219900281
vn 1.6385298841992043e-16 -1 -1.638532390537416e-16
vn 0.7071066507372346 0.0000013893024331932313 0.7071069116344717
vn 0.7071068806902677 1.5073717460509575e-7 0.7071066816827972
vn 0.7071062403822231 1.5073703839204122e-7 -0.7071073219904422
vn 0.7071068790339379 1.5073717451270743e-7 0.7071066833391275
vn 0.7071066507372314 0.0000013926499411107144 0.7071069116344683
vn 0 1 0
usemtl m_0b41602a-5e41-aca7-d180-233d2bdbfdbb
f 289/785/197 290/786/197 291/787/197 292/788/197
f 293/789/198 294/790/198 295/791/198 296/792/198
f 295/793/199 294/794/199 292/795/199 291/796/199
f 296/797/200 290/798/200 289/799/200 293/800/200
f 297/801/201 298/802/201 299/803/201 300/804/201
f 301/805/202 302/806/202 303/807/202 304/808/202
f 300/809/203 299/810/203 302/811/203 301/812/203
f 304/813/204 303/814/204 298/815/204 297/816/204
f 305/817/205 299/818/205 298/819/205 306/820/205
f 307/821/206 303/822/206 302/823/206 308/824/206
f 308/825/207 302/826/207 299/827/207 305/828/207
f 306/829/208 298/830/208 303/831/208 307/832/208
f 309/833/209 310/834/209 311/835/209 312/836/209
f 313/837/210 314/838/210 315/839/210 316/840/210
f 315/841/211 314/842/211 312/843/211 311/844/211
f 316/845/212 310/846/212 309/847/212 313/848/212
f 317/849/213 318/850/213 319/851/213 320/852/213
f 321/853/214 322/854/214 323/855/214 324/856/214
f 320/857/215 319/858/215 322/859/215 321/860/215
f 324/861/216 323/862/216 318/863/216 317/864/216
f 325/865/217 319/866/217 318/867/217 326/868/217
f 327/869/218 323/870/218 322/871/218 328/872/218
f 328/873/219 322/874/219 319/875/219 325/876/219
f 326/877/220 318/878/220 323/879/220 327/880/220
f 329/881/221 330/882/221 331/883/221 332/884/221
f 333/885/222 334/886/222 335/887/222 336/888/222
f 335/889/223 334/890/223 332/891/223 331/892/223
f 336/893/224 330/894/224 329/895/224 333/896/224
f 337/897/225 338/898/225 339/899/225 340/900/225
f 341/901/226 342/902/226 338/903/226 337/904/226
f 343/905/227 338/906/227 342/907/227 344/908/227
f 345/909/228 339/910/228 338/911/228 343/912/228
f 346/913/229 347/914/229 342/915/229 341/916/229
f 344/917/230 342/918/230 347/919/230 348/920/230
f 348/921/231 347/922/231 339/923/231 345/924/231
f 340/925/232 339/926/232 347/927/232 346/928/232
f 349/929/233 350/930/233 351/931/233 352/932/233
f 353/933/234 354/934/234 355/935/234 356/936/234
f 355/937/235 354/938/235 352/939/235 351/940/235
f 356/941/236 350/942/236 349/943/236 353/944/236
f 357/945/237 358/946/237 359/947/237 360/948/237
f 361/949/238 362/950/238 358/951/238 357/952/238
f 363/953/239 358/954/239 362/955/239 364/956/239
f 365/957/240 359/958/240 358/959/240 363/960/240
f 366/961/241 367/962/241 362/963/241 361/964/241
f 364/965/242 362/966/242 367/967/242 368/968/242
f 368/969/243 367/970/243 359/971/243 365/972/243
f 360/973/244 359/974/244 367/975/244 366/976/244
f 369/977/245 370/978/245 371/979/245 372/980/245
f 373/981/246 374/982/246 375/983/246 376/984/246
f 375/985/247 374/986/247 372/987/247 371/988/247
f 376/989/248 370/990/248 369/991/248 373/992/248
f 377/993/249 378/994/249 379/995/249 380/996/249
f 381/997/250 382/998/250 378/999/250 377/1000/250
f 383/1001/251 378/1002/251 382/1003/251 384/1004/251
f 385/1005/252 379/1006/252 378/1007/252 383/1008/252
f 386/1009/253 387/1010/253 382/1011/253 381/1012/253
f 384/1013/254 382/1014/254 387/1015/254 388/1016/254
f 388/1017/255 387/1018/255 379/1019/255 385/1020/255
f 380/1021/256 379/1022/256 387/1023/256 386/1024/256
f 389/1025/257 390/1026/257 391/1027/257 392/1028/257
f 393/1029/258 394/1030/258 395/1031/258 396/1032/258
f 395/1033/259 394/1034/259 392/1035/259 391/1036/259
f 396/1037/260 390/1038/260 389/1039/260 393/1040/260
f 397/1041/261 398/1042/261 399/1043/261 400/1044/261
f 401/1045/262 402/1046/262 398/1047/262 397/1048/262
f 403/1049/263 398/1050/263 402/1051/263 404/1052/263
f 405/1053/264 399/1054/264 398/1055/264 403/1056/264
f 406/1057/265 407/1058/265 402/1059/265 401/1060/265
f 404/1061/266 402/1062/266 407/1063/266 408/1064/266
f 408/1065/267 407/1066/267 399/1067/267 405/1068/267
f 400/1069/268 399/1070/268 407/1071/268 406/1072/268
f 409/1073/269 410/1074/269 411/1075/269 412/1076/269
f 413/1077/270 414/1078/270 415/1079/270 416/1080/270
f 415/1081/271 414/1082/271 412/1083/271 411/1084/271
f 416/1085/272 410/1086/272 409/1087/272 413/1088/272
f 417/1089/273 418/1090/273 419/1091/273 420/1092/273
f 421/1093/274 422/1094/274 418/1095/274 417/1096/274
f 423/1097/275 418/1098/275 422/1099/275 424/1100/275
f 425/1101/276 419/1102/276 418/1103/276 423/1104/276
f 426/1105/277 427/1106/277 422/1107/277 421/1108/277
f 424/1109/278 422/1110/278 427/1111/278 428/1112/278
f 428/1113/279 427/1114/279 419/1115/279 425/1116/279
f 420/1117/280 419/1118/280 427/1119/280 426/1120/280
f 429/1121/281 430/1122/281 431/1123/281 432/1124/281
f 433/1125/282 434/1126/282 435/1127/282 436/1128/282
f 435/1129/283 434/1130/283 432/1131/283 431/1132/283
f 436/1133/284 430/1134/284 429/1135/284 433/1136/284
f 437/1137/285 438/1138/285 439/1139/285 440/1140/285
f 441/1141/286 442/1142/286 438/1143/286 437/1144/286
f 443/1145/287 438/1146/287 442/1147/287 444/1148/287
f 445/1149/288 439/1150/288 438/1151/288 443/1152/288
f 446/1153/289 447/1154/289 442/1155/289 441/1156/289
f 444/1157/290 442/1158/290 447/1159/290 448/1160/290
f 448/1161/291 447/1162/291 439/1163/291 445/1164/291
f 440/1165/292 439/1166/292 447/1167/292 446/1168/292